<?xml version="1.0" standalone="no"?>
<!DOCTYPE svg PUBLIC "-//W3C//DTD SVG 1.1//EN" "http://www.w3.org/Graphics/SVG/1.1/DTD/svg11.dtd" >
<svg xmlns="http://www.w3.org/2000/svg">
<metadata>
This is a custom SVG font generated by IcoMoon.
<iconset grid="32"></iconset>
</metadata>
<defs>
<font id="csiconfont" horiz-adv-x="1024" >
<font-face units-per-em="1024" ascent="960" descent="-64" />
<missing-glyph horiz-adv-x="1024" />
<glyph class="hidden" unicode="&#xf000;" d="M0,960L 1024 -64L0 -64 z" horiz-adv-x="0" />
<glyph unicode="&#xe13a;" d="M 574.925,385.075c-81.050-81.101-174.95-158.618-212.070-121.446c-53.146,53.094-85.862,99.379-203.008,5.274s-27.187-156.877, 24.32-208.384
		c 59.392-59.341, 280.781-3.123, 499.661,215.706c 218.778,218.829, 275.098,440.269, 215.654,499.661c-51.456,51.507-114.176,141.414-208.333,24.32
		s-47.872-149.862, 5.274-203.008C 733.44,560.026, 655.974,466.176, 574.925,385.075z"  />
<glyph unicode="&#xe008;" d="M 710.502,960L 313.498,960 C 256,960, 208.998,912.998, 208.998,855.501l0-815.002 C 208.998-16.947, 256-64, 313.498-64l 397.005,0 c 57.498,0, 104.499,47.053, 104.499,104.499
		L 815.002,855.501 C 815.002,912.998, 768,960, 710.502,960z M 512-22.221c-40.346,0-73.114,23.398-73.114,52.275s 32.768,52.275, 73.114,52.275
		c 40.397,0, 73.114-23.398, 73.114-52.275S 552.397-22.221, 512-22.221z M 731.392,134.554L 292.557,134.554 L 292.557,824.166 l 438.835,0 L 731.392,134.554 z"  />
<glyph unicode="&#xe13b;" d="M 788.582,222.566l-134.451,385.843c-37.018,106.189-151.91,164.864-260.762,135.885L 292.198,940.595C 283.034,958.362, 261.581,965.171, 244.224,955.802
		C 226.867,946.381, 220.211,924.365, 229.376,906.598l 98.765-191.642c-78.694-52.224-119.603-151.194-93.696-244.378l 109.568-394.035
		c 30.822-110.746, 157.696-167.168, 285.235-128.154C 755.149-7.424, 826.419,114.125, 788.582,222.566z M 455.629,503.142C 418.304,490.906, 378.266,511.949, 366.285,550.298
		C 354.304,588.595, 374.886,629.606, 412.262,641.843c 37.376,12.288, 77.414-8.806, 89.395-47.104S 493.056,515.43, 455.629,503.142z"  />
<glyph unicode="&#xe13c;" d="M 435.2,908.8L 389.171,908.8 C 377.856,908.8, 368.64,899.584, 368.64,888.32l0-194.56 L 187.597,693.76 c-8.448,0-18.944-1.946-28.979-5.018
		C 148.48,685.619, 138.803,681.318, 131.891,676.608l-121.6-83.456C 3.43,588.442,0,582.246,0,576s 3.43-12.442, 10.291-17.152l 121.6-83.456
		C 138.803,470.682, 148.48,466.381, 158.618,463.258C 168.653,460.186, 179.149,458.24, 187.597,458.24L 368.64,458.24 l0-450.56 c0-11.315, 9.216-20.48, 20.48-20.48L 435.2-12.8 
		c 11.315,0, 20.48,9.216, 20.48,20.48L 455.68,888.32 C 455.68,899.584, 446.515,908.8, 435.2,908.8z M 1013.709,695.501l-121.6,83.456c-6.861,4.71-16.538,9.011-26.675,12.134
		C 855.347,794.214, 844.851,796.16, 836.403,796.16L 486.4,796.16 l 41.011-235.52l 308.992,0 c 8.448,0, 18.944,1.946, 29.030,5.018s 19.814,7.424, 26.675,12.083l 121.6,83.456
		C 1020.621,665.958, 1024,672.154, 1024,678.4S 1020.621,690.842, 1013.709,695.501z"  />
<glyph unicode="&#xe134;" d="M 81.613,689.357c 24.986-13.466, 371.149-199.373, 384.051-206.285C 478.515,476.16, 495.206,472.832, 512,472.832c 16.845,0, 33.536,3.328, 46.387,10.291
		c 12.902,6.912, 359.014,192.819, 384,206.285C 967.424,702.822, 991.078,744.96, 945.152,744.96L 78.899,744.96 C 32.973,744.96, 56.576,702.822, 81.613,689.357z M 952.986,586.957
		c-28.416-14.848-377.19-197.171-394.598-206.285S 528.845,370.381, 512,370.381c-16.794,0-28.928,1.178-46.336,10.291S 99.43,572.16, 71.066,586.957
		C 51.046,597.402, 51.2,585.165, 51.2,575.744c0-9.421,0-375.552,0-375.552C 51.2,178.688, 79.821,151.040, 101.99,151.040l 820.070,0 c 22.221,0, 50.739,27.648, 50.739,49.101
		c0,0,0,366.131,0,375.552C 972.8,585.165, 973.005,597.402, 952.986,586.957z"  />
<glyph unicode="&#xe157;" d="M 957.133,825.088C 939.571,818.893, 70.298,512.614, 53.197,506.573c-14.541-5.12-17.818-17.664-0.512-24.525
	c 20.531-8.243, 194.355-77.875, 194.355-77.875L 246.989,404.173 l 115.251-46.182c0,0, 554.854,407.501, 562.381,412.979c 7.526,5.53, 16.282-4.864, 10.803-10.803
	c-5.478-5.99-402.995-435.917-402.995-435.917c-0.051,0-0.051,0-0.051,0l-23.142-25.805l 30.669-16.486l0,0c0,0, 238.080-128.154, 255.027-137.318
	c 14.848-7.987, 34.202-1.331, 38.502,17.152c 5.069,21.811, 145.664,627.814, 148.787,641.229C 986.317,820.582, 974.746,831.283, 957.133,825.088z M 361.216,81.306
	c0-12.646, 7.117-16.128, 16.947-7.219c 12.8,11.674, 145.869,131.072, 145.869,131.072l-162.816,84.275L 361.216,81.306 z"  />
<glyph unicode="&#xe11a;" d="M 847.923,783.974c-73.83,73.882-129.28,62.822-129.28,62.822L 459.93,588.083L 164.352,292.506L 112.64,48.64l 243.866,51.712l 295.578,295.578l 258.662,258.662
		C 910.746,654.592, 921.856,710.042, 847.923,783.974z M 341.965,129.69l-83.098-17.92c-8.038,15.002-17.715,30.003-35.379,47.718
		c-17.664,17.664-32.717,27.29-47.718,35.328l 17.971,83.149l 24.013,24.013c0,0, 45.261-0.922, 96.307-51.968c 51.098-51.098, 52.019-96.358, 52.019-96.358
		L 341.965,129.69z"  />
<glyph unicode="&#xe156;" d="M 217.805-51.814c 15.667,51.251, 39.424,123.443, 71.219,227.891c 138.547,22.374, 195.891-17.869, 283.904,142.541
	c-71.424-22.323-157.542,41.421-152.883,69.018c 4.608,27.648, 200.346-19.917, 328.448,165.786c-161.485-36.301-213.197,43.674-192.358,55.757
	c 48.077,27.904, 190.822,11.571, 266.906,87.194c 39.219,38.912, 57.549,133.581, 41.626,167.373c-19.2,40.755-136.038,101.581-200.448,95.898
	c-64.41-5.734-165.427-250.317-195.379-248.371S 432.896,820.787, 485.171,920.832c-55.142-24.883-156.16-102.349-187.853-168.55
	c-59.034-123.187, 5.53-405.658-15.155-415.744c-20.736-10.035-90.419,129.69-111.206,193.024c-28.416-97.075-29.082-194.355, 53.965-323.584
	c-31.334-84.787-48.435-182.374-51.046-231.987C 172.646-65.741, 210.893-74.24, 217.805-51.814z"  />
<glyph unicode="&#xe11b;" d="M 254.003-64c-68.403,0-132.454,28.979-178.739,75.315c-89.6,89.6-114.637,246.067, 11.008,371.712C 159.949,456.602, 454.861,751.514, 602.061,898.714
		c 52.275,52.275, 118.733,72.448, 182.426,55.347c 62.515-16.691, 113.818-67.942, 130.56-130.509c 17.050-63.693-3.174-130.202-55.398-182.426l-493.158-493.21
		c-28.16-28.16-59.955-44.851-91.955-48.179c-31.642-3.328-61.85,6.861-83.046,28.006c-38.4,38.349-43.827,110.541, 19.968,174.285l 346.368,346.47
		c 14.234,14.182, 37.325,14.182, 51.558,0c 14.234-14.234, 14.234-37.325,0-51.558l-346.419-346.419c-29.952-29.952-32.717-58.573-19.968-71.322
		c 5.581-5.53, 14.080-8.090, 23.859-7.066c 15.002,1.587, 32.102,11.315, 48.077,27.29l 493.158,493.158c 33.843,33.843, 46.797,73.626, 36.506,112.077
		c-10.138,37.837-41.165,68.864-79.002,79.002c-38.451,10.291-78.234-2.714-112.077-36.506C 506.368,699.955, 211.456,405.043, 137.83,331.469
		c-96.051-96.051-73.062-206.592-11.059-268.646c 62.054-62.003, 172.595-85.043, 268.698,11.059L 911.206,589.568c 14.182,14.234, 37.325,14.234, 51.507,0
		c 14.234-14.234, 14.234-37.325,0-51.507L 446.976,22.323C 386.202-38.502, 318.208-64, 254.003-64z"  />
<glyph unicode="&#xe155;" d="M 990.157,471.398c-20.122,21.35-116.941,116.326-161.229,159.693c-13.619,13.261-33.075,21.709-53.402,21.709c-20.275,0-263.475,0-263.475,0
	s-243.2,0-263.526,0S 208.691,644.301, 195.123,631.040c-44.288-43.366-141.21-138.342-161.28-159.693c-25.037-26.624-38.758-47.872-32.205-74.189l 28.723-157.389
	c 6.502-26.317, 35.328-47.872, 64.051-47.872l 835.174,0 c 28.723,0, 57.549,21.555, 64.051,47.872l 28.774,157.389C 1028.915,423.475, 1015.194,444.774, 990.157,471.398
	z M 719.258,437.299c-5.222,0-9.882-2.662-12.237-6.81l-41.83-104.243L 358.861,326.246 l-41.83,104.243c-2.304,4.147-7.066,6.81-12.237,6.81L 123.29,437.299 
	l 104.499,118.221l 568.525,0 l 104.448-118.221L 719.258,437.299 z"  />
<glyph unicode="&#xe154;" d="M 972.8,99.84c0,0-102.4,498.33-551.68,498.33L 421.12,796.16 L 51.2,465.664l 369.92-342.579l0,223.13 C 664.986,346.214, 845.67,324.608, 972.8,99.84z"  />
<glyph unicode="&#xe153;" d="M 369.92,658.944L 369.92,796.16 L0,465.664l 369.92-342.579l0,142.285 L 153.6,465.664L 369.92,658.944z M 625.92,598.221L 625.92,796.16 L 256,465.664l 369.92-342.579l0,223.13 
		c 168.602,0, 270.95-21.606, 398.080-246.374C 1024,99.84, 1005.21,598.221, 625.92,598.221z"  />
<glyph unicode="&#xe152;" d="M 602.88,346.214l0-223.078 L 972.8,465.664L 602.88,796.16l0-197.939 C 153.6,598.221, 51.2,99.84, 51.2,99.84C 178.33,324.608, 359.014,346.214, 602.88,346.214z"  />
<glyph unicode="&#xe000;" d="M 758.784,220.262c-126.208,45.978-166.554,84.787-166.554,167.885c0,49.869, 38.554,33.587, 55.45,124.928c 7.014,37.888, 41.062,0.614, 47.616,87.091
		c0,34.458-18.586,43.059-18.586,43.059s 9.472,51.046, 13.158,90.266C 694.374,782.438, 661.606,908.8, 486.4,908.8C 311.245,908.8, 278.374,782.438, 282.982,733.491
		C 286.669,694.272, 296.141,643.226, 296.141,643.226S 277.504,634.675, 277.504,600.166c 6.502-86.477, 40.55-49.203, 47.565-87.091
		c 16.947-91.341, 55.501-75.059, 55.501-124.928c0-83.098-40.346-121.907-166.554-167.885c-126.669-46.080-208.896-93.133-208.896-125.235c0-32.051,0-107.776,0-107.776
		l 481.28,0 l 481.28,0 c0,0,0,75.725,0,107.776C 967.68,127.078, 885.402,174.131, 758.784,220.262z"  />
<glyph unicode="&#xe001;" d="M 1024-2.56c0,0-1.997,193.894-13.875,213.965c-17.664,29.952-58.675,50.483-134.861,82.33c-75.93,31.744-100.25,58.573-100.25,115.866
		c0,34.458, 23.194,23.194, 33.382,86.221c 4.198,26.163, 24.678,0.461, 28.621,60.109c0,23.808-11.162,29.747-11.162,29.747s 5.632,35.226, 7.885,62.31
		c 2.765,33.792-17.050,120.986-122.47,120.986s-125.133-87.245-122.419-120.986c 2.202-27.085, 7.834-62.31, 7.834-62.31s-11.162-5.939-11.162-29.747
		c 3.942-59.699, 24.422-33.997, 28.672-60.109c 10.138-63.027, 33.331-51.763, 33.331-86.221c0-38.963-11.264-63.846-42.342-85.709
		c 165.888-83.046, 188.16-99.994, 188.16-174.234L 793.344-2.56 L 1024-2.56 z M 523.469,264.96c-101.325,42.291-133.632,78.029-133.632,154.47c0,45.875, 30.925,30.925, 44.493,114.995
		c 5.581,34.867, 32.973,0.563, 38.144,80.128c0,31.744-14.899,39.629-14.899,39.629s 7.578,46.95, 10.547,83.098C 471.808,782.234, 445.389,898.56, 304.845,898.56
		c-140.544,0-166.912-116.275-163.226-161.28c 2.97-36.147, 10.496-83.098, 10.496-83.098S 137.267,646.298, 137.267,614.554
		c 5.274-79.616, 32.563-45.312, 38.195-80.128c 13.568-84.070, 44.493-69.069, 44.493-114.995c0-76.442-32.41-112.179-133.632-154.47
		C 55.45,252.058,0,232.038,0,184.013L0-2.56 l 711.373,0 c0,0,0,110.336,0,139.827C 711.373,181.146, 624.998,222.464, 523.469,264.96z"  />
<glyph unicode="&#xe002;" d="M 633.702,220.262C 506.163,266.24, 465.408,305.050, 465.408,388.147c0,49.869, 38.963,33.587, 56.064,124.928c 7.117,37.888, 41.523,0.614, 48.026,87.091
		c0,34.458-18.739,43.059-18.739,43.059s 9.574,51.046, 13.261,90.266C 568.627,782.438, 535.45,908.8, 358.4,908.8S 148.173,782.438, 152.781,733.491
		c 3.738-39.27, 13.312-90.266, 13.312-90.266S 147.302,634.675, 147.302,600.166c 6.605-86.477, 41.011-49.203, 48.026-87.091
		c 17.152-91.341, 56.115-75.059, 56.115-124.928c0-83.098-40.806-121.907-168.346-167.885c-15.36-5.478-51.968-14.080-83.098-27.546L0-12.8 l 819.2,0 
		c0,0,0,75.725,0,107.776S 761.702,174.131, 633.702,220.262z M 870.4,499.2L 870.4,652.8 l-102.4,0 l0-153.6 l-153.6,0 l0-102.4 l 153.6,0 l0-153.6 l 102.4,0 l0,153.6 l 153.6,0 L 1024,499.2 L 870.4,499.2 z"  />
<glyph unicode="&#xe003;" d="M 921.6,857.6L 102.4,857.6 C 46.080,857.6,0,811.52,0,755.2l0-614.4 c0-56.32, 46.080-102.4, 102.4-102.4l 819.2,0 c 56.371,0, 102.4,46.080, 102.4,102.4L 1024,755.2 C 1024,811.52, 977.971,857.6, 921.6,857.6z M 921.6,140.8L 102.4,140.8 L 102.4,755.2 l 819.2,0 L 921.6,140.8 z M 460.8,340.48L 204.8,340.48 
		L 204.8,248.32 l 256,0 L 460.8,340.48 z M 460.8,494.080L 204.8,494.080 l0-92.16 l 256,0 L 460.8,494.080 z M 460.8,647.68L 204.8,647.68 l0-92.16 l 256,0 L 460.8,647.68 z M 814.080,320c0,0-87.040,22.733-87.040,67.482c0,42.598, 56.371,60.518, 56.371,147.558
		c0,70.656-21.504,112.64-92.211,112.64s-92.16-41.933-92.16-112.64c0-87.040, 56.32-104.96, 56.32-147.558c0-44.749-86.989-67.482-86.989-67.482C 563.2,320, 563.2,248.32, 563.2,248.32
		l 256,0 C 819.2,248.32, 819.2,320, 814.080,320z"  />
<glyph unicode="&#xe14f;" d="M 768,151.040L 102.4,151.040 l0,460.8 l 132.864,0 c0,0, 35.277,45.875, 111.104,102.4L 51.2,714.24 c-28.262,0-51.2-22.938-51.2-51.2l0-563.2 c0-28.314, 22.938-51.2, 51.2-51.2l 768,0 c 28.314,0, 51.2,22.886, 51.2,51.2l0,191.795 
		l-102.4-84.224L 768,151.040 z M 684.134,506.88l0-181.76 L 1024,591.411L 684.134,847.36l0-160.256 C 271.36,687.053, 271.36,279.040, 271.36,279.040C 388.198,470.938, 460.083,506.88, 684.134,506.88z"  />
<glyph unicode="&#xe150;" d="M 512,857.6C 370.586,857.6, 256,742.963, 256,601.6c0-244.429, 256-563.2, 256-563.2s 256,318.771, 256,563.2C 768,742.963, 653.414,857.6, 512,857.6z M 512,460.288c-76.339,0-138.24,61.901-138.24,138.24
		s 61.901,138.24, 138.24,138.24s 138.24-61.901, 138.24-138.24S 588.339,460.288, 512,460.288z"  />
<glyph unicode="&#xe151;" d="M 1007.77,702.771l-239.309,149.862c-10.598,6.656-23.859,6.656-34.458,0L 512,713.574L 289.997,852.582c-10.598,6.656-23.859,6.656-34.458,0
		L 16.23,702.771C 6.195,696.474,0,685.056,0,672.819l0-599.398 c0-12.595, 6.451-24.269, 16.998-30.464s 23.398-6.042, 33.741,0.461l 222.003,139.059l 222.003-139.059
		c 10.598-6.656, 23.859-6.656, 34.509,0l 222.003,139.059l 222.003-139.059C 978.534,40.090, 984.525,38.4, 990.515,38.4c 5.683,0, 11.366,1.536, 16.486,4.557
		C 1017.498,49.152, 1024,60.826, 1024,73.421L 1024,672.819 C 1024,685.056, 1017.805,696.474, 1007.77,702.771z M 239.258,243.046L 66.97,135.168L 66.97,653.005 l 172.288,107.878L 239.258,243.046 z
		 M 478.515,135.168l-172.288,107.878L 306.227,760.883 l 172.288-107.878L 478.515,135.168 z M 717.773,243.046l-172.237-107.878L 545.536,653.005 l 172.237,107.878L 717.773,243.046 z M 956.979,135.168
		l-172.237,107.878L 784.742,760.883 l 172.237-107.878L 956.979,135.168 z"  />
<glyph unicode="&#xe139;" d="M 505.446,939.469C 233.984,935.834, 16.896,712.858, 20.531,441.446c 3.635-271.462, 226.611-488.55, 498.074-484.966
		c 271.411,3.686, 488.55,226.611, 484.915,498.074C 999.782,726.016, 776.806,943.104, 505.446,939.469z M 517.171,60.006c-214.272-2.918-390.298,168.499-393.216,382.822
		C 121.139,657.101, 292.506,833.126, 506.829,835.994c 214.272,2.867, 390.298-168.499, 393.165-382.822S 731.494,62.925, 517.171,60.006z M 279.194,217.395
		c0,0, 233.933,32.102, 333.722,131.891c 99.789,99.789, 131.891,333.722, 131.891,333.722S 510.925,650.854, 411.136,551.117C 311.347,451.277, 279.194,217.395, 279.194,217.395z
		 M 461.568,500.634C 503.501,542.618, 583.68,572.365, 652.493,590.848c-18.483-68.659-48.384-149.453-90.061-191.078c-27.853-27.853-73.011-27.853-100.864,0
		C 433.664,427.622, 433.664,472.781, 461.568,500.634z"  />
<glyph unicode="&#xe138;" d="M 1009.613,945.664c-34.816,34.867-68.096,1.894-180.992-52.326C 526.541,748.083,0,453.069,0,453.069l 452.352-64.666L 517.018-64
		c0,0, 295.066,526.541, 440.269,828.621C 1011.61,877.568, 1044.48,910.746, 1009.613,945.664z M 901.12,829.235l-328.602-610.15l-33.331,277.299L 901.12,829.235z"  />
<glyph unicode="&#xe137;" d="M 512,888.32c-243.149,0-440.32-197.171-440.32-440.32c0-243.2, 197.171-440.32, 440.32-440.32c 243.2,0, 440.32,197.12, 440.32,440.32C 952.32,691.149, 755.2,888.32, 512,888.32z
		 M 547.84,91.392L 547.84,289.28 L 476.16,289.28 l0-197.888 c-169.318,16.794-303.923,151.45-320.768,320.768L 353.28,412.16 L 353.28,483.84 L 155.392,483.84 C 172.237,653.158, 306.842,787.814, 476.16,804.608L 476.16,606.72 l 71.68,0 
		L 547.84,804.608 c 169.37-16.794, 303.974-151.45, 320.768-320.768L 670.72,483.84 l0-71.68 l 197.888,0 C 851.814,242.842, 717.21,108.186, 547.84,91.392z"  />
<glyph unicode="&#xe136;" d="M 768,294.4c-35.226,0-67.482-11.93-93.389-31.846l-267.213,160.307C 408.678,431.053, 409.6,439.45, 409.6,448c0,8.602-0.922,16.947-2.202,25.139
		l 267.213,160.307C 700.518,613.53, 732.774,601.6, 768,601.6c 84.787,0, 153.6,68.762, 153.6,153.6s-68.813,153.6-153.6,153.6s-153.6-68.762-153.6-153.6c0-8.55, 0.922-16.947, 2.253-25.139
		L 349.44,569.702C 323.533,589.67, 291.226,601.6, 256,601.6c-84.838,0-153.6-68.762-153.6-153.6c0-84.787, 68.762-153.6, 153.6-153.6c 35.226,0, 67.533,11.93, 93.44,31.846l 267.213-160.307
		C 615.322,157.747, 614.4,149.402, 614.4,140.8c0-84.787, 68.813-153.6, 153.6-153.6s 153.6,68.813, 153.6,153.6S 852.787,294.4, 768,294.4z"  />
<glyph unicode="&#xe135;" d="M 348.16,448c0-90.47, 73.37-163.84, 163.84-163.84s 163.84,73.421, 163.84,163.84c0,90.47-73.37,163.84-163.84,163.84
	S 348.16,538.47, 348.16,448z M 231.885,509.44C 259.994,638.259, 374.733,734.72, 512,734.72c 79.206,0, 150.835-32.102, 202.701-83.968c 24.013-24.013, 62.925-24.013, 86.938,0
	c 23.962,24.013, 23.962,62.925,0,86.886C 727.501,811.725, 625.101,857.6, 512,857.6C 328.602,857.6, 173.363,737.075, 121.19,570.88L0,570.88 L0,448 l 163.84,0 
	C 214.989,448, 227.533,489.626, 231.885,509.44z M 860.16,448c-51.098,0-63.693-41.626-68.045-61.44C 764.006,257.741, 649.318,161.28, 512,161.28
	c-79.155,0-150.835,32.051-202.701,83.968c-24.013,24.013-62.925,24.013-86.886,0s-24.013-62.925,0-86.886C 296.499,84.275, 398.899,38.4, 512,38.4
	c 183.398,0, 338.637,120.525, 390.81,286.72L 1024,325.12 L 1024,448 L 860.16,448 z"  />
<glyph unicode="&#xe119;" d="M 880.077,747.469c-85.606,78.592-224.41,78.592-310.016,0L 512,694.118L 453.888,747.469c-85.606,78.592-224.358,78.592-309.965,0
		c-96.307-88.371-96.307-231.629,0-320.051L 512,89.6l 368.077,337.818C 976.384,515.84, 976.384,659.098, 880.077,747.469z"  />
<glyph unicode="&#xe118;" d="M 880.077,747.52c-85.606,78.541-224.41,78.541-310.016,0L 512,694.17L 453.888,747.52c-85.606,78.541-224.358,78.541-309.965,0
	c-96.307-88.422-96.307-231.629,0-320.051L 512,89.6l 368.077,337.869C 976.384,515.84, 976.384,659.098, 880.077,747.52z M 825.6,480L 512,187.443L 198.451,480
	c-31.642,28.979-43.878,67.174-43.878,107.52c0,40.243, 7.066,73.318, 38.707,102.349C 221.184,715.52, 258.714,729.6, 298.854,729.6
	c 40.192,0, 77.722-24.371, 105.626-50.022L 512,586.086L 619.52,679.578C 647.424,705.229, 684.902,729.6, 725.094,729.6s 77.722-14.080, 105.677-39.731
	c 31.59-29.030, 38.605-62.106, 38.707-102.349C 869.478,547.226, 857.19,508.979, 825.6,480z"  />
<glyph unicode="&#xe117;" d="M 512,898.56L 634.266,554.394L 962.56,554.394L 694.682,352.256L 790.426-2.56L 512,210.125L 233.574-2.56L 329.318,352.256L 61.44,554.394L 389.734,554.394 	z"  />
<glyph unicode="&#xe116;" d="M 962.56,554.394l-328.346,0 L 511.949,898.56L 389.734,554.394L 61.44,554.394 l 267.827-202.138l-95.744-354.816l 278.426,212.685l 278.426-212.685l-95.744,354.816L 962.56,554.394z
	 M 511.949,310.579l-154.214-128.051l 63.59,182.374l-145.971,117.76l 180.275-5.12l 56.269,206.848l 56.32-206.848l 180.275,5.12l-145.971-117.76l 63.642-182.374L 511.949,310.579z
	"  />
<glyph unicode="&#xe007;" d="M 698.778,583.014c-6.758,18.176, 181.248,186.112, 71.578,322.15c-25.702,31.795-112.691-152.371-236.288-235.725C 465.92,623.462, 307.2,525.568, 307.2,471.45l0-350.259 
	C 307.2,56.115, 558.797-12.8, 750.029-12.8C 820.122-12.8, 921.6,426.24, 921.6,496.026C 921.6,566.016, 705.536,564.787, 698.778,583.014z M 256,578.15c-33.638,0-153.6-20.48-153.6-159.846
	l0-248.218 c0-139.366, 119.962-154.675, 153.6-154.675s-51.2,29.286-51.2,115.661L 204.8,457.37 C 204.8,547.891, 289.638,578.15, 256,578.15z"  />
<glyph unicode="&#xe006;" d="M 325.274,312.934c 6.707-18.176-181.248-186.061-71.578-322.099c 25.702-31.846, 112.691,152.32, 236.288,235.725C 558.131,272.538, 716.8,370.483, 716.8,424.55
	l0,350.208 C 716.8,839.885, 465.254,908.8, 274.022,908.8C 203.93,908.8, 102.4,469.76, 102.4,399.974C 102.4,329.984, 318.515,331.213, 325.274,312.934z M 768,317.85c 33.69,0, 153.6,20.429, 153.6,159.846
	L 921.6,725.862 c0,139.366-119.91,154.726-153.6,154.726c-33.638,0, 51.2-29.338, 51.2-115.661l0-326.298 C 819.2,348.109, 734.362,317.85, 768,317.85z"  />
<glyph unicode="&#xe005;" d="M 296.96,335.36L 296.96,652.8 L 102.4,652.8 C 46.080,652.8,0,606.72,0,550.4l0-307.2 c0-56.32, 46.080-102.4, 102.4-102.4l 51.2,0 l0-153.6 l 153.6,153.6l 256,0 c 56.32,0, 102.4,46.080, 102.4,102.4l0,93.184 c-3.277-0.717-6.758-1.075-10.24-1.075L 296.96,335.309 
		z M 921.6,908.8L 460.8,908.8 C 404.48,908.8, 358.4,862.72, 358.4,806.4l0-409.6 l 358.4,0 l 153.6-153.6l0,153.6 l 51.2,0 c 56.32,0, 102.4,46.080, 102.4,102.4L 1024,806.4 C 1024,862.72, 977.92,908.8, 921.6,908.8z"  />
<glyph unicode="&#xe004;" d="M 819.2,806.4L 204.8,806.4 C 148.48,806.4, 102.4,760.32, 102.4,704l0-358.4 c0-56.32, 46.080-102.4, 102.4-102.4l 204.8,0 l 204.8-153.6l0,153.6 l 204.8,0 c 56.32,0, 102.4,46.080, 102.4,102.4L 921.6,704 C 921.6,760.32, 875.52,806.4, 819.2,806.4z"  />
<glyph unicode="&#xe009;" d="M 251.699,765.286c-82.432,0-149.299-68.762-149.299-153.6s 66.867-153.6, 149.299-153.6c 149.248,0, 49.766-296.96-149.299-296.96l0-71.629 
		C 457.626,89.498, 596.838,765.286, 251.699,765.286z M 681.728,765.286c-82.432,0-149.299-68.762-149.299-153.6s 66.867-153.6, 149.299-153.6c 149.248,0, 49.766-296.96-149.299-296.96
		l0-71.629 C 887.706,89.498, 1026.918,765.286, 681.728,765.286z"  />
<glyph unicode="&#xe11c;" d="M 961.024,432.64l-410.829,411.187c-20.992,21.811-55.347,21.811-76.339,0L 62.976,432.64c-21.043-21.76-13.21-39.629, 17.408-39.629l 85.658,0 l0-315.802 
		c0-22.784, 0.973-41.421, 42.189-41.421l 199.424,0 l0,316.826 l 208.64,0 l0-316.826 l 209.357,0 c 31.437,0, 32.307,18.586, 32.307,41.421l0,315.802 l 85.606,0 
		C 974.131,393.011, 982.016,410.829, 961.024,432.64z"  />
<glyph unicode="&#xe14e;" d="M 819.2,857.6L 408.576,857.6 C 352.256,857.6, 307.2,812.544, 307.2,756.224L 307.2,345.6 c0-56.32, 46.080-102.4, 102.4-102.4l 409.6,0 c 56.32,0, 102.4,46.080, 102.4,102.4L 921.6,755.2 C 921.6,811.52, 875.52,857.6, 819.2,857.6z M 819.2,345.6L 409.6,345.6 L 409.6,755.2 l 409.6,0 L 819.2,345.6 z M 204.8,448L 102.4,448 l0-307.2 
		c0-56.32, 46.080-102.4, 102.4-102.4l 307.2,0 l0,102.4 L 204.8,140.8 L 204.8,448 z"  />
<glyph unicode="&#xe14d;" d="M 898.304,168.038l-193.485,193.485c 29.184,47.974, 45.978,104.192, 45.978,164.454c0,174.899-151.603,326.502-326.554,326.502
		C 249.344,852.48, 107.52,710.656, 107.52,535.757c0-174.95, 151.552-326.554, 326.502-326.554c 58.163,0, 112.64,15.77, 159.488,43.162l 194.509-194.56
		c 19.098-19.046, 49.92-19.046, 68.915,0l 48.282,48.23C 924.211,125.082, 917.299,149.043, 898.304,168.038z M 205.005,535.757
		c0,121.088, 98.15,219.29, 219.238,219.29c 121.139,0, 229.069-107.93, 229.069-229.069s-98.15-219.29-219.29-219.29S 205.005,414.618, 205.005,535.757z"  />
<glyph unicode="&#xe14c;" d="M 876.288,812.339c-85.811,85.76-193.485,117.146-227.789,82.842L 510.464,757.094C 489.523,736.154, 471.245,666.061, 479.642,595.149l-417.843-417.894
		c-24.781-24.73-4.71-84.992, 44.851-134.554c 49.562-49.613, 109.875-69.632, 134.605-44.902l 417.843,417.843c 70.963-8.397, 141.056,9.882, 161.946,30.822
		l 138.086,138.086C 993.434,618.854, 962.048,726.528, 876.288,812.339z M 416.819,394.752C 397.722,413.798, 403.968,450.918, 430.592,477.594s 63.744,32.87, 82.842,13.824
		c 18.995-19.046, 12.851-56.166-13.824-82.842C 472.934,381.901, 435.866,375.706, 416.819,394.752z M 762.419,698.419c-66.458,66.458-83.149,154.112-77.261,160.051
		c 5.939,5.939, 90.163-14.234, 156.672-80.691c 66.458-66.458, 86.374-150.886, 80.64-156.621S 828.826,631.962, 762.419,698.419z"  />
<glyph unicode="&#xe14b;" d="M 76.8,601.498l 870.4,0 c 29.184,0, 24.422,31.13, 9.882,36.198C 942.541,642.765, 780.8,703.898, 752.64,703.898l-46.080,0 l0,153.6 L 317.44,857.498 l0-153.6 L 271.36,703.898 
		c-28.16,0-189.901-61.133-204.442-66.202C 52.378,632.627, 47.565,601.498, 76.8,601.498z M 957.44,545.178L 66.56,545.178 c-28.16,0-56.32-33.28-56.32-61.44l0-179.2 
		c0-28.16, 28.16-61.44, 56.32-61.44l 101.478,0 l-45.158-256l 778.24,0 l-45.158,256L 957.44,243.098 c 28.16,0, 56.32,33.28, 56.32,61.44l0,179.2 C 1013.76,511.898, 985.6,545.178, 957.44,545.178z
		 M 225.28,89.498l 71.68,332.8l 430.080,0 l 71.629-332.8L 225.28,89.498 z"  />
<glyph unicode="&#xe14a;" d="M 750.080,524.134c-116.736,251.238-177.408,346.675-368.179,342.682c-67.942-1.382-51.61,49.203-103.424,30.003
		C 226.714,877.67, 271.155,849.562, 218.163,806.093c-148.582-121.958-134.912-234.803-65.997-503.808c 29.082-113.254-69.99-118.835-30.822-228.659
		c 28.621-80.026, 239.565-113.613, 462.131-30.976c 222.566,82.534, 363.008,246.426, 334.387,326.554C 878.694,478.976, 799.283,418.355, 750.080,524.134z M 559.309,110.285
		c-198.707-73.728-362.086-30.362-368.998-11.11c-11.878,33.229, 64.154,144.179, 291.379,228.506c 227.226,84.326, 354.048,53.043, 367.309,15.923
		C 856.832,321.69, 758.118,184.064, 559.309,110.285z M 495.462,289.178c-103.936-38.554-176.128-82.637-222.874-122.368
		c 32.922-29.901, 94.515-37.171, 155.955-14.387c 78.182,29.030, 126.208,95.642, 107.213,148.736c-0.205,0.666-0.563,1.229-0.819,1.843
		C 522.138,298.854, 508.979,294.246, 495.462,289.178z"  />
<glyph unicode="&#xe00a;" d="M 402.381,207.667l-41.472-41.165c-35.942-35.584-94.362-35.635-130.253,0c-17.254,17.152-26.726,39.834-26.726,64.051
		s 9.523,46.95, 26.726,64.102l 152.576,151.398c 31.59,31.386, 91.085,77.517, 134.451,34.509c 19.917-19.763, 52.070-19.61, 71.782,0.256
		c 19.763,19.866, 19.661,52.019-0.256,71.782c-73.677,73.114-182.63,59.597-277.504-34.509l-152.576-151.398C 122.573,330.342, 102.4,282.010, 102.4,230.554
		c0-51.405, 20.173-99.738, 56.781-136.090C 196.864,57.037, 246.323,38.4, 295.782,38.4s 99.021,18.637, 136.704,56.064l 41.472,41.216
		c 19.917,19.763, 20.019,51.917, 0.256,71.731C 454.451,227.277, 422.298,227.379, 402.381,207.667z M 864.819,795.699
		c-79.155,78.541-189.798,82.79-263.117,10.086l-51.661-51.251c-19.917-19.763-20.070-51.866-0.307-71.782c 19.814-19.917, 51.917-20.019, 71.782-0.256
		l 51.661,51.251c 37.939,37.683, 87.654,22.067, 120.115-10.086c 17.254-17.101, 26.726-39.885, 26.726-64.051c0-24.218-9.523-46.95-26.726-64.051
		l-162.816-161.485c-74.394-73.83-109.363-39.219-124.262-24.422c-19.917,19.763-52.019,19.61-71.731-0.256c-19.763-19.917-19.661-52.070, 0.256-71.782
		c 34.15-33.894, 73.216-50.688, 114.074-50.688c 50.074,0, 102.963,25.19, 153.242,75.11l 162.765,161.485C 901.427,559.821, 921.6,608.154, 921.6,659.558
		S 901.427,759.347, 864.819,795.699z"  />
<glyph unicode="&#xe00b;" d="M 946.483,720.384C 362.394,486.554, 598.989,1115.904, 145.971,784.589L 51.2,750.592L 238.899,12.8l 103.373,0 L 250.368,374.17
		c 404.173,338.842, 240.538-369.203, 718.643,325.478C 980.122,715.776, 965.274,727.91, 946.483,720.384z"  />
<glyph unicode="&#xe00c;" d="M 859.392,448c0,53.658, 33.024,96, 82.688,125.082c-9.011,29.901-20.787,58.624-35.379,85.606c-55.808-14.592-100.915,7.27-138.803,45.158
		c-37.99,37.939-49.613,83.098-35.021,138.803c-26.982,14.592-55.603,26.522-85.606,35.43C 618.189,828.365, 565.606,795.341, 512,795.341
		c-53.606,0-106.138,33.024-135.27,82.739C 346.726,869.171, 318.106,857.242, 291.123,842.701C 305.664,786.944, 294.093,741.786, 256.154,703.846
		C 218.214,665.958, 173.056,644.096, 117.35,658.637C 102.758,631.706, 90.88,602.982, 81.92,573.082C 131.635,544, 164.659,501.658, 164.659,448
		c0-53.606-33.024-106.189-82.739-135.322c 8.96-29.952, 20.838-58.624, 35.43-85.606c 55.757,14.592, 100.864,2.97, 138.803-34.97
		c 37.939-37.939, 49.51-83.046, 34.97-138.803c 26.982-14.592, 55.654-26.522, 85.606-35.43c 29.133,49.766, 81.664,82.739, 135.27,82.739
		c 53.606,0, 106.24-33.024, 135.322-82.739c 30.003,8.96, 58.624,20.838, 85.606,35.43c-14.592,55.757-3.021,100.864, 35.021,138.803
		c 37.888,37.888, 82.995,59.75, 138.803,45.21c 14.592,26.982, 26.419,55.654, 35.379,85.606C 892.416,352.051, 859.392,394.394, 859.392,448z M 512,260.966
		c-103.27,0-186.982,83.763-186.982,187.034S 408.73,635.034, 512,635.034c 103.322,0, 187.034-83.763, 187.034-187.034S 615.322,260.966, 512,260.966z"  />
<glyph unicode="&#xe13d;" d="M 160.461,607.232C 208.282,644.352, 247.91,618.803, 300.8,557.568C 306.79,550.707, 314.778,558.746, 319.283,562.688c 4.506,3.994, 74.342,66.765, 77.722,69.683
	C 400.435,635.392, 404.531,641.024, 399.104,647.322s-25.293,32-38.042,48.64c-92.57,121.088, 253.235,203.213, 200.090,204.493
	c-26.982,0.717-135.475,1.946-151.654,0.256C 343.808,893.747, 261.325,832.358, 219.802,803.789c-54.272-37.325-74.598-58.982-77.926-62.003
	c-15.36-13.466-2.458-44.39-30.31-68.813C 82.125,647.168, 63.795,666.675, 46.746,651.725c-8.499-7.475-32.102-25.139-38.912-31.13
	C 1.075,614.656-0.154,604.57, 6.758,596.48c0,0, 64.666-71.475, 70.144-77.773C 82.33,512.41, 96.922,507.085, 105.984,515.072
	c 9.062,7.936, 32.307,28.365, 36.25,31.846C 146.227,550.349, 139.674,591.104, 160.461,607.232z M 452.762,580.813c-6.144,7.117-13.722,7.27-20.326,1.434
	L 358.963,518.195c-5.734-5.12-6.502-14.541-1.331-20.48l 424.653-483.226c 9.882-11.469, 27.085-12.646, 38.502-2.714l 49.715,41.574
	c 11.315,9.933, 12.493,27.341, 2.611,38.758L 452.762,580.813z M 1018.982,786.483c-3.789,25.293-16.896,19.968-23.706,9.216
	c-6.707-10.701-36.915-56.371-49.306-77.005c-12.288-20.582-42.496-60.979-99.021-21.094c-58.778,41.574-38.298,70.605-28.109,90.112
	c 10.291,19.61, 41.882,74.496, 46.49,81.408c 4.506,6.912-0.819,26.982-18.995,18.586c-18.278-8.448-129.178-52.531-144.589-115.712
	c-15.718-64.358, 13.21-121.805-43.52-178.893l-68.71-71.68l 69.018-80.282l 84.685,80.435c 20.224,20.275, 63.283,39.987, 102.298,31.13
	c 83.61-18.944, 129.178,12.493, 156.723,64.358C 1026.918,663.501, 1022.822,761.19, 1018.982,786.483z M 140.288,86.989c-10.65-10.752-10.65-28.16,0-38.861
	l 48.691-47.616c 10.65-10.701, 27.546-6.195, 38.195,4.506l 251.238,247.040L 401.408,339.763L 140.288,86.989z"  />
<glyph unicode="&#xe13e;" d="M 572.467,225.075c0,74.291, 56.32,115.354, 148.173,176.179C 833.024,475.75, 972.8,568.422, 972.8,788.275c0,19.814-16.179,35.84-36.198,35.84l-175.667,0 
		C 736.102,869.99, 662.221,919.040, 512,919.040c-150.17,0-224.102-49.050-248.883-94.925L 87.45,824.115 C 67.43,824.115, 51.2,808.090, 51.2,788.275
		c0-219.853, 139.827-312.525, 252.211-386.97c 91.904-60.826, 148.224-101.888, 148.224-176.179l0-67.123 c-96.512-10.752-167.424-46.438-167.424-88.883
		c0-50.893, 101.99-92.16, 227.789-92.16c 125.85,0, 227.84,41.267, 227.84,92.16c0,42.445-70.912,78.131-167.424,88.883L 572.416,225.075 z M 714.598,483.84
		c 29.082,61.44, 52.070,144.742, 55.757,268.595l 128.461,0 C 886.579,614.246, 803.482,544.41, 714.598,483.84z M 512,856.269c 139.878,0.051, 194.56-57.139, 194.509-78.336
		c0-21.35-54.528-78.49-194.509-78.592C 372.122,699.494, 317.542,756.582, 317.542,777.933C 317.491,799.13, 372.122,856.371, 512,856.269z M 125.235,752.435l 128.41,0 
		C 257.382,628.582, 280.371,545.28, 309.402,483.84C 220.518,544.41, 137.472,614.246, 125.235,752.435z"  />
<glyph unicode="&#xe13f;" d="M 987.699,939.213c-5.53,16.128-22.989,24.627-38.963,19.046s-24.371-23.245-18.79-39.424c 47.104-136.704-46.387-238.797-117.606-293.427
		l-28.826,41.677c-9.626,13.926-31.334,25.549-48.128,25.805l-161.536-0.768c-16.794,0.256-41.779-7.526-55.603-17.254l-475.955-337.306
		c-23.040-16.333-28.723-48.486-12.544-71.834l 216.371-312.678c 16.128-23.347, 42.086-20.531, 65.126-4.25l 475.955,337.357
		c 13.824,9.728, 29.542,30.925, 35.123,47.002l 50.586,161.075c 5.478,16.077, 2.15,40.653-7.475,54.579l-17.613,25.395
		C 943.514,648.192, 1042.842,779.11, 987.699,939.213z M 766.259,460.186c-36.915-26.163-87.757-17.050-113.613,20.275
		c-25.805,37.325-16.845,88.781, 20.070,114.944c 29.286,20.787, 67.328,19.251, 94.72-0.922c-13.824-8.397-23.245-13.21-25.037-14.080
		c-15.258-7.27-21.811-25.702-14.592-41.165c 5.222-11.213, 16.179-17.818, 27.699-17.818c 4.352,0, 8.806,0.973, 13.005,2.97
		c 9.779,4.659, 20.378,10.342, 31.386,16.947C 804.813,510.976, 792.832,479.027, 766.259,460.186z"  />
<glyph unicode="&#xe140;" d="M 512,550.4c-84.787,0-153.6-68.813-153.6-153.6c0-84.838, 68.813-153.6, 153.6-153.6c 84.838,0, 153.6,68.762, 153.6,153.6C 665.6,481.587, 596.838,550.4, 512,550.4z M 921.6,704l-122.829,0 
		c-16.896,0-35.123,13.107-40.448,29.133l-31.744,95.283C 721.152,844.493, 702.976,857.6, 686.080,857.6L 337.92,857.6 C 321.024,857.6, 302.797,844.493, 297.523,828.467L 265.677,733.133
		C 260.352,717.107, 242.176,704, 225.28,704L 102.4,704 C 46.080,704,0,657.92,0,601.6l0-460.8 c0-56.32, 46.080-102.4, 102.4-102.4l 819.2,0 c 56.371,0, 102.4,46.080, 102.4,102.4L 1024,601.6 C 1024,657.92, 977.971,704, 921.6,704z M 512,140.8
		c-141.414,0-256,114.586-256,256c0,141.363, 114.586,256, 256,256c 141.363,0, 256-114.637, 256-256C 768,255.386, 653.363,140.8, 512,140.8z M 885.76,530.022
		c-19.763,0-35.789,16.026-35.789,35.84s 16.026,35.84, 35.789,35.84c 19.814,0, 35.84-16.026, 35.84-35.84S 905.574,530.022, 885.76,530.022z"  />
<glyph unicode="&#xe141;" d="M 881.818,600.115c-81.050,188.672-211.558,332.339-277.555,305.459c-112.077-45.568, 66.816-264.397-483.635-488.141
	c-47.565-19.302-59.597-96.666-39.68-142.899c 19.866-46.234, 84.89-92.262, 132.454-72.96c 8.192,3.328, 38.451,13.056, 38.451,13.056
	c 33.946-45.568, 69.478-18.534, 82.125-47.514c 15.155-34.816, 48.077-110.438, 59.238-136.141c 11.264-25.702, 36.659-49.562, 55.091-42.547
	c 18.33,7.014, 80.947,30.874, 104.909,39.936s 29.696,30.464, 22.374,47.309c-7.885,18.125-40.243,23.45-49.459,44.646
	c-9.267,21.197-39.424,89.037-48.077,110.438c-11.776,29.082, 13.261,52.736, 49.664,56.525c 250.573,26.112, 297.421-128.666, 382.72-93.952
	C 976.282,220.262, 962.867,411.443, 881.818,600.115z M 853.606,294.093c-14.643-5.939-113.254,71.782-176.282,218.47
	c-62.976,146.637-55.040,280.678-40.448,286.618c 14.643,5.99, 110.848-87.859, 173.875-234.496C 873.677,418.099, 868.25,300.032, 853.606,294.093z"  />
<glyph unicode="&#xe142;" d="M 628.224,331.776C 482.97,186.573, 262.963,161.894, 92.16,257.536c 19.712-35.123, 44.339-68.198, 74.24-98.099c 175.104-175.104, 459.008-175.104, 634.112,0
		c 175.104,175.155, 175.104,459.059,0,634.163c-29.901,29.901-62.925,54.528-98.099,74.24C 798.106,697.037, 773.376,477.030, 628.224,331.776z"  />
<glyph unicode="&#xe143;" d="M 888.422,726.272c-158.925,105.677-337.357,142.182-548.966,81.562c-165.171-47.36-316.57-235.213-328.294-396.083
		c-13.875-190.208, 134.298-353.075, 395.162-352.819c 281.293,0.307, 386.56,135.373, 388.915,176.384c 2.304,41.062-109.773,116.941-37.632,194.97
		c 90.368,97.741, 170.803,14.438, 219.546,26.214C 1025.894,468.173, 1050.573,618.342, 888.422,726.272z M 562.074,249.19c-42.547,0-77.056,34.406-77.056,76.8
		c0,42.445, 34.509,76.8, 77.056,76.8s 77.005-34.355, 77.005-76.8C 639.027,283.597, 604.621,249.19, 562.074,249.19z"  />
<glyph unicode="&#xe144;" d="M 272.384,749.875C 76.698,636.314, 87.962,451.379, 94.72,382.976c 252.774,299.366, 630.835,284.826, 630.835,284.826S 189.594,484.045, 32.154,115.405
		c-12.39-29.184, 58.368-67.021, 74.496-32.614c 48.179,102.502, 115.354,179.405, 115.354,179.405c 99.123-36.915, 270.49-80.077, 392.038,5.376
		c 161.331,113.613, 144.845,365.363, 375.245,487.936C 1043.098,784.179, 537.702,903.834, 272.384,749.875z"  />
<glyph unicode="&#xe145;" d="M 604.109,898.611l-82.125,0 l0-669.286 c-45.414,17.51-104.192,17.766-162.15-3.328c-103.834-37.786-165.734-129.741-138.24-205.312
		c 27.546-75.622, 134.042-106.24, 237.875-68.454c 88.218,32.102, 145.92,103.27, 144.486,170.24l 0.154,547.328c 143.206-22.528, 152.986-203.622, 135.834-254.413
		c-6.554-19.251, 4.966-33.638, 26.624,0C 920.934,655.667, 604.109,761.6, 604.109,898.611z"  />
<glyph unicode="&#xe146;" d="M 312.832,820.275l0-607.59c-33.075,6.912-71.578,4.301-109.773-9.83c-85.862-31.898-116.173-109.568-93.389-173.363
	c 22.733-63.846, 89.958-89.651, 175.821-57.754c 72.909,27.085, 120.678,87.091, 119.45,143.718c0,0,0,322.202,0,501.914l 363.571,83.302l0-385.536 
	c-33.075,6.912-71.578,4.301-109.773-9.83c-85.914-31.898-116.224-109.568-93.44-173.363c 22.784-63.846, 89.958-89.651, 175.872-57.754
	c 72.96,27.085, 120.627,87.091, 119.501,143.718L 860.672,937.984 L 312.832,820.275z"  />
<glyph unicode="&#xe115;" d="M 956.928,327.885l-88.422,78.848c-25.6,22.835-25.6,60.109,0,82.944l 88.422,78.797c 25.6,22.835, 18.739,44.083-15.206,47.309l-117.197,11.11
	c-33.946,3.226-52.224,32.41-40.55,64.87l 62.208,173.158c 11.674,32.461-2.611,44.288-31.693,26.266l-138.291-85.504
	c-29.082-18.022-66.662-8.192-83.507,21.862l-50.125,89.395c-16.794,30.054-44.646,30.208-61.798,0.358L 434.227,836.301
	C 417.075,806.451, 377.651,793.702, 346.624,807.987l-81.92,37.632C 233.626,859.853, 209.766,843.366, 211.61,808.858L 216.064,726.17
	c 1.843-34.458-23.603-69.99-56.525-78.848L 80.435,626.074C 47.514,617.165, 41.472,591.258, 67.072,568.422l 88.422-78.797c 25.6-22.784, 25.6-60.109,0-82.893
	L 67.072,327.987c-25.6-22.886-18.842-44.902, 15.002-48.998l 107.264-13.005c 33.843-4.198, 52.736-34.406, 41.933-67.123l-55.040-166.81
	c-10.803-32.819, 4.608-45.619, 34.202-28.416l 126.106,72.909c 29.645,17.203, 69.427,7.68, 88.474-20.89l 52.378-78.694
	c 18.995-28.723, 47.616-27.085, 63.437,3.482l 46.029,88.678c 15.923,30.618, 53.914,43.11, 84.429,27.802l 88.781-44.39
	c 30.618-15.309, 54.118,0.41, 52.275,34.918l-4.454,82.688c-1.843,34.509, 23.603,69.99, 56.525,78.899l 79.053,21.197
	C 976.486,279.194, 982.528,305.101, 956.928,327.885z M 563.2,233.216L 460.8,233.216 l0,107.52 l 102.4,0 L 563.2,233.216 z M 563.2,397.005L 460.8,397.005 l0,266.24 l 102.4,0 L 563.2,397.005 z"  />
<glyph unicode="&#xe114;" d="M 169.062,333.414c 23.757-96.307, 53.965-138.291, 154.726-182.374C 424.602,107.008, 472.474,58.88, 512,58.88s 84.326,42.086, 185.139,86.221
	c 100.813,43.981, 73.933,57.498, 97.69,153.702L 512,161.28L 169.062,333.414z M 998.963,584.397l-426.24,238.694c-33.382,18.688-88.013,18.688-121.395,0
	L 25.037,584.397c-33.382-18.688-33.382-49.306,0-67.994l 426.24-238.694c 33.382-18.688, 88.013-18.688, 121.395,0l 275.558,154.317l-298.803,69.99
	C 537.958,499.149, 525.312,497.562, 512,497.562c-53.811,0-97.434,25.958-97.434,57.958S 458.189,613.53, 512,613.53c 41.779,0, 77.363-15.718, 91.187-37.683
	l 316.467-103.834l 79.309,44.39C 1032.346,535.091, 1032.346,565.709, 998.963,584.397z M 868.71,131.994c-3.226-19.61, 65.69-52.019, 72.243,5.581
	c 29.645,259.635-21.299,334.387-21.299,334.387l-71.424-39.987C 848.23,432.026, 908.8,374.374, 868.71,131.994z"  />
<glyph unicode="&#xe113;" d="M 852.378,696.678L 391.68,934.195C 328.55,967.424, 204.134,903.219, 168.397,846.694C 152.474,821.402, 153.6,803.174, 153.6,792.832l 5.683-536.32
	c 0.358-11.418, 14.746-26.726, 26.982-34.304c 25.549-15.667, 412.672-257.28, 423.578-264.141c 5.888-3.686, 12.902-5.376, 19.763-5.376
	c 5.837,0, 11.725,1.28, 17.050,3.942C 658.33-37.632, 665.6-26.573, 665.6-14.438L 665.6,548.813 c0,11.725-6.861,22.528-18.022,28.416L 228.864,811.008
	C 233.574,820.224, 252.211,839.68, 286.464,857.6C 322.56,876.544, 349.542,869.376, 355.738,866.97c0,0, 401.92-215.091, 414.208-221.491c 12.237-6.4, 12.493-7.373, 12.493-18.278
	c0-10.957,0-534.528,0-534.528c0-26.675, 27.034-37.581, 46.95-37.581c 19.814,0, 41.011,19.456, 41.011,37.581L 870.4,668.262 
	C 870.4,679.987, 863.488,690.842, 852.378,696.678z"  />
<glyph unicode="&#xe147;" d="M 819.2,908.8L 204.8,908.8 C 148.48,908.8, 102.4,862.72, 102.4,806.4l0-716.8 c0-56.32, 46.080-102.4, 102.4-102.4l 614.4,0 c 56.371,0, 102.4,46.080, 102.4,102.4L 921.6,806.4 C 921.6,862.72, 875.571,908.8, 819.2,908.8z M 819.2,89.6L 204.8,89.6 L 204.8,806.4 l 614.4,0 L 819.2,89.6 z M 563.2,345.6L 307.2,345.6 l0-51.2 l 256,0 
	L 563.2,345.6 z M 716.8,550.4l-204.8,0 l0-51.2 l 204.8,0 L 716.8,550.4 z M 512,601.6l 204.8,0 L 716.8,704 l-204.8,0 L 512,601.6 z M 460.8,704L 307.2,704 l0-204.8 l 153.6,0 L 460.8,704 z M 409.6,448L 307.2,448 l0-51.2 l 102.4,0 L 409.6,448 z M 460.8,396.8l 256,0 l0,51.2 L 460.8,448 L 460.8,396.8 z M 716.8,243.2L 307.2,243.2 l0-51.2 l 409.6,0 L 716.8,243.2 z M 614.4,294.4l 102.4,0 l0,51.2 l-102.4,0 L 614.4,294.4 z"  />
<glyph unicode="&#xe148;" d="M 927.846,772.25c-15.155,13.107-97.587,75.52-112.998,88.781S 775.373,878.080, 758.374,878.080L 265.626,878.080 c-16.947,0-41.062-3.738-56.422-17.050
		c-15.411-13.312-97.843-75.725-112.998-88.781S 68.403,739.43, 72.448,711.27c 4.045-28.16, 99.174-664.218, 99.174-664.218
		C 176.947,31.027, 195.174,17.92, 212.173,17.92l 599.706,0 c 16.998,0, 35.226,13.158, 40.55,29.133c0,0, 95.078,636.058, 99.174,664.218
		C 955.597,739.43, 943.002,759.142, 927.846,772.25z M 512,326.758c-166.298,0-201.882,235.366-209.254,283.853L 396.8,610.611 c 14.182-70.758, 46.387-191.693, 115.2-191.693
		s 101.069,120.934, 115.251,191.693l 94.003,0 C 713.882,562.125, 678.298,326.758, 512,326.758z M 151.706,704l 112.947,117.76l 494.694,0 L 872.294,704L 151.706,704 z"  />
<glyph unicode="&#xe00d;" d="M 273.92-57.856l 102.4,0 l 229.786,409.651L 870.4,351.795 c0,0, 153.6,0, 153.6,71.629c0,71.68-153.6,71.68-153.6,71.68l-264.294,0 l-229.786,409.6l-102.4,0 l 127.386-409.6L 217.651,495.104 L 102.4,597.555L0,597.555 l 81.971-174.080
		L0,249.344l 102.4,0 l 115.251,102.451l 183.654,0 L 273.92-57.856z"  />
<glyph unicode="&#xe149;" d="M 505.702,918.989c-260.096-3.482-468.173-217.139-464.691-477.286c 3.482-260.198, 217.19-468.173, 477.286-464.742
		c 260.147,3.482, 468.224,217.19, 464.691,477.286C 979.507,714.445, 765.798,922.47, 505.702,918.989z M 506.573,857.6c 70.144,0.973, 136.397-15.872, 194.56-46.131
		l-63.386-105.677C 599.757,724.275, 557.107,734.72, 512,734.72c-45.056,0-87.706-10.445-125.696-28.979L 322.97,811.366C 377.958,840.038, 440.32,856.678, 506.573,857.6z
		 M 254.259,322.304l-105.574-63.283c-28.672,54.938-45.312,117.299-46.182,183.501c-0.973,70.195, 15.872,136.448, 46.131,194.56l 105.626-63.437
		C 235.725,535.706, 225.28,493.107, 225.28,448C 225.28,402.944, 235.725,360.294, 254.259,322.304z M 517.478,38.451c-70.144-0.973-136.448,15.872-194.56,46.131l 63.386,105.677
		C 424.294,171.725, 466.944,161.28, 512,161.28c 45.107,0, 87.757,10.394, 125.696,28.928l 63.334-105.574C 646.042,56.013, 583.731,39.373, 517.478,38.451z
		 M 512,222.771c-124.416,0-225.229,100.864-225.229,225.229c0,124.416, 100.864,225.28, 225.229,225.28c 124.467,0, 225.28-100.864, 225.28-225.28
		C 737.28,323.584, 636.467,222.771, 512,222.771z M 769.741,322.304c 18.534,37.99, 28.979,80.64, 28.979,125.696c0,45.107-10.445,87.706-28.979,125.696
		l 105.574,63.386c 28.672-54.989, 45.363-117.299, 46.234-183.552c 0.922-70.195-15.923-136.448-46.182-194.56L 769.741,322.304z"  />
<glyph unicode="&#xe00e;" d="M 512,734.72C 176.077,734.72,0,487.27,0,448s 176.077-286.72, 512-286.72s 512,247.45, 512,286.72S 847.923,734.72, 512,734.72z M 512,227.43
		c-125.645,0-227.533,98.765-227.533,220.57S 386.355,668.57, 512,668.57c 125.696,0, 227.584-98.765, 227.584-220.57S 637.696,227.43, 512,227.43z M 512,448
		c-20.787,22.835, 33.997,110.234,0,110.234c-62.822,0-113.766-49.357-113.766-110.234S 449.178,337.715, 512,337.715c 62.874,0, 113.818,49.408, 113.818,110.285
		C 625.818,475.955, 529.766,428.544, 512,448z"  />
<glyph unicode="&#xe00f;" d="M 512,919.040c-260.147,0-471.040-210.944-471.040-471.040c0-260.147, 210.893-471.040, 471.040-471.040s 471.040,210.893, 471.040,471.040C 983.040,708.147, 772.147,919.040, 512,919.040z M 512,79.36
			c-203.622,0-368.64,165.069-368.64,368.64S 308.378,816.64, 512,816.64s 368.64-165.069, 368.64-368.64S 715.622,79.36, 512,79.36zM 547.84,714.24L 476.16,714.24L 476.16,433.152L 650.496,258.816L 701.184,309.504L 547.84,462.848 		z"  />
<glyph unicode="&#xe010;" d="M 819.2,589.158l-30.72,0 c-11.315,0-20.48-9.216-20.48-20.48L 768,427.52 c0-68.454-53.914-184.32-256-184.32s-256,115.866-256,184.32L 256,568.678 c0,11.264-9.267,20.48-20.48,20.48L 204.8,589.158 
			c-11.264,0-20.48-9.216-20.48-20.48L 184.32,427.52 c0-114.534, 84.173-237.056, 276.48-253.952L 460.8,38.4 L 327.629,38.4 C 316.416,38.4, 307.2,29.184, 307.2,17.92L 307.2-43.52 C 307.2-54.784, 316.416-64, 327.629-64l 368.64,0 
			c 11.315,0, 20.48,9.216, 20.48,20.48L 716.749,17.92 c0,11.315-9.216,20.48-20.48,20.48L 563.2,38.4 l0,135.168 c 192.358,16.896, 276.48,139.469, 276.48,253.952L 839.68,568.678 
			C 839.68,579.942, 830.464,589.158, 819.2,589.158zM 512,345.6c 120.166,0, 153.6,49.357, 153.6,81.92L 665.6,589.158 L 358.4,589.158 L 358.4,427.52 C 358.4,394.957, 391.834,345.6, 512,345.6zM 665.6,878.080C 665.6,910.694, 632.166,960, 512,960S 358.4,910.694, 358.4,878.080l0-217.242 l 307.2,0 L 665.6,878.080 z"  />
<glyph unicode="&#xe011;" d="M 870.4,806.4l-46.080,0 l0-102.4 L 660.48,704 L 660.48,806.4 L 363.52,806.4 l0-102.4 L 199.68,704 L 199.68,806.4 L 153.6,806.4 C 97.28,806.4, 51.2,760.32, 51.2,704l0-614.4 c0-56.32, 46.080-102.4, 102.4-102.4l 716.8,0 c 56.32,0, 102.4,46.080, 102.4,102.4L 972.8,704 C 972.8,760.32, 926.72,806.4, 870.4,806.4z M 870.4,89.6L 153.6,89.6 
		L 153.6,499.2 l 716.8,0 L 870.4,89.6 z M 317.44,908.8L 245.76,908.8 l0-174.080 l 71.68,0 L 317.44,908.8 z M 778.24,908.8l-71.68,0 l0-174.080 l 71.68,0 L 778.24,908.8 z"  />
<glyph unicode="&#xe012;" d="M 348.314-12.749c-9.882,6.502, 161.485,366.592, 155.546,382.413c-5.888,15.821-187.597,73.574-196.506,101.376
		c-8.858,27.802, 358.81,445.747, 368.435,437.658c 9.626-8.038-160.205-370.586-155.546-382.362s 190.925-71.987, 196.506-101.325
		C 722.33,395.571, 358.195-19.2, 348.314-12.749z"  />
<glyph unicode="&#xe013;" d="M 778.906,568.883c-14.080,0-27.955-1.229-41.421-3.482c-33.587,109.824-137.626,189.85-260.915,189.85c-150.426,0-272.333-119.194-272.333-266.24
	c0-13.107, 1.024-26.010, 2.918-38.656C 199.936,451.174, 192.666,451.738, 185.19,451.738C 82.944,451.738,0,370.637,0,270.694c0-99.994, 82.944-181.043, 185.19-181.043
	l 593.715,0 c 135.424,0, 245.094,107.315, 245.094,239.616C 1024,461.568, 914.278,568.883, 778.906,568.883z M 582.246,348.16c-25.344-36.045-133.888-147.917-138.496-152.627
	c-5.325-6.554-20.019-17.562-33.946-8.499c-3.994,2.611-8.806,7.834-8.806,18.125c0,9.882, 4.506,19.968, 5.069,21.094l 52.89,117.043
	c-9.933,3.942-26.982,10.854-40.243,16.64L 415.181,361.472c-13.414,5.632-30.106,12.749-30.106,31.13c0,8.755, 4.198,18.995, 12.749,31.181
	c 25.344,36.045, 133.888,147.866, 138.496,152.627c 5.325,6.554, 19.968,17.562, 33.946,8.55c 3.994-2.611, 8.806-7.834, 8.806-18.125
	c0-9.882-4.506-19.968-5.069-21.094l-52.89-117.043c 9.933-3.994, 26.982-10.906, 40.243-16.64l 3.482-1.485c 13.414-5.683, 30.106-12.8, 30.106-31.181
	C 594.995,370.534, 590.797,360.346, 582.246,348.16z"  />
<glyph unicode="&#xe014;" d="M 522.394,931.277c-1.331,10.957-19.456,10.957-20.787,0C 456.397,567.347, 225.28,492.339, 225.28,239.411c0-156.211, 131.226-282.88, 286.72-282.88
	c 155.494,0, 286.72,126.72, 286.72,282.88C 798.72,492.339, 567.603,567.347, 522.394,931.277z M 478.771,528.998c-3.072-11.213-6.298-22.784-9.626-34.662
	c-20.531-72.909-43.827-155.597-43.827-251.187c0-51.814-30.618-70.195-59.238-70.195c-32.666,0-59.187,26.675-59.187,59.699
	c0,112.998, 54.426,186.778, 102.451,251.904c 15.053,20.378, 29.235,39.629, 40.806,58.88c 5.274,8.755, 19.507,8.397, 25.958-0.307
	C 479.027,538.931, 480.051,533.811, 478.771,528.998z"  />
<glyph unicode="&#xe015;" d="M 512,919.040c-260.147,0-471.040-210.893-471.040-471.040s 210.893-471.040, 471.040-471.040s 471.040,210.893, 471.040,471.040S 772.147,919.040, 512,919.040z M 512,294.4c-84.838,0-153.6,68.813-153.6,153.6
	c0,84.838, 68.762,153.6, 153.6,153.6c 84.787,0, 153.6-68.813, 153.6-153.6C 665.6,363.213, 596.787,294.4, 512,294.4z"  />
<glyph unicode="&#xe016;" d="M 465.92,396.698L 558.080,396.698 l0-102.4 L 1024,294.298 c0,0-7.578,228.25-10.24,299.725c-2.509,67.891-26.778,109.875-102.4,109.875l-164.25,0 
	c-25.446,47.974-52.838,99.584-61.235,115.456c-16.947,31.949-22.733,38.144-60.416,38.144L 398.541,857.498 c-37.683,0-43.469-6.195-60.416-38.144
	C 329.728,803.482, 302.336,751.872, 276.89,703.898L 112.64,703.898 c-75.622,0-99.584-41.984-102.4-109.875S0,294.298,0,294.298l 465.92,0 L 465.92,396.698 z M 391.68,759.45
	c 11.725,22.118, 15.77,26.419, 41.779,26.419l 157.030,0 c 26.112,0, 30.106-4.301, 41.779-26.419c 4.403-8.294, 16.282-30.72, 29.491-55.501L 362.24,703.949 
	C 375.398,728.678, 387.277,751.104, 391.68,759.45z M 558.080,140.698L 465.92,140.698 l0,102.4 L 25.6,243.098 c0,0, 6.4-92.058, 10.24-170.086c 1.587-32.41, 11.11-85.914, 92.109-85.914
	l 768.102,0 c 80.998,0, 90.317,53.555, 92.109,85.914c 4.454,80.23, 10.24,170.086, 10.24,170.086l-440.32,0 L 558.080,140.698 z"  />
<glyph unicode="&#xe017;" d="M 135.373,634.522c 89.446,76.8, 160.154,137.574, 351.846,29.184c 92.109-52.070, 166.4-71.629, 228.25-71.629c 108.288,0, 178.432,60.262, 239.104,112.333
	c 21.658,18.586, 24.474,51.61, 6.246,73.677s-50.483,24.934-72.141,6.349c-89.446-76.851-160.102-137.574-351.898-29.184
	C 283.443,898.355, 164.762,796.416, 69.427,714.496C 47.821,695.91, 45.005,662.938, 63.181,640.87S 113.715,615.885, 135.373,634.522z M 888.627,522.957
	c-89.446-76.8-160.102-137.574-351.898-29.184C 283.443,636.877, 164.762,534.938, 69.427,453.069c-21.658-18.586-24.474-51.61-6.246-73.677
	s 50.483-24.934, 72.141-6.349c 89.446,76.851, 160.154,137.574, 351.846,29.235c 92.109-52.070, 166.4-71.68, 228.25-71.68c 108.288,0, 178.432,60.262, 239.104,112.384
	c 21.658,18.586, 24.474,51.558, 6.246,73.626C 942.592,538.726, 910.285,541.542, 888.627,522.957z M 888.627,261.478c-89.446-76.8-160.102-137.574-351.898-29.184
	c-253.286,143.104-372.019,41.216-467.302-40.704c-21.658-18.586-24.474-51.61-6.246-73.677s 50.483-24.934, 72.141-6.349
	C 224.819,188.416, 295.475,249.088, 487.219,140.8c 92.109-52.070, 166.4-71.68, 228.25-71.68c 108.288,0, 178.432,60.262, 239.104,112.384
	c 21.658,18.534, 24.474,51.558, 6.246,73.626S 910.285,280.115, 888.627,261.478z"  />
<glyph unicode="&#xe018;" d="M 798.72,725.606c0,109.568,0,120.269,0,120.269C 798.72,886.323, 670.362,960, 512,960S 225.28,886.323, 225.28,845.875c0,0,0-10.701,0-120.269
		c0-109.568, 198.502-200.038, 198.502-277.606c0-77.619-198.502-168.038-198.502-277.658c0-109.568,0-120.269,0-120.269C 225.28,9.677, 353.638-64, 512-64
		s 286.72,73.677, 286.72,114.125c0,0,0,10.701,0,120.269c0,109.619-198.451,200.038-198.451,277.658C 600.269,525.568, 798.72,616.090, 798.72,725.606z M 304.128,840.755
		c 35.635,22.477, 102.451,55.45, 210.637,55.45c 108.237,0, 205.107-55.45, 205.107-55.45c 7.27-4.403, 35.738-19.661, 16.23-31.181
		c-42.957-25.446-126.925-52.224-224.154-52.224S 333.619,786.893, 290.662,812.339C 271.155,823.91, 304.128,840.755, 304.128,840.755z M 537.651,448
		c0-61.082, 50.995-100.403, 105.062-152.883c 39.475-38.349, 93.44-90.829, 93.44-124.774l0-67.994 c-49.613,24.73-198.195,48.947-198.195,128.205
		c0,40.141-51.917,40.141-51.917,0c0-79.258-148.582-103.475-198.195-128.205l0,67.994 c0,33.894, 54.016,86.426, 93.491,124.774
		C 435.354,347.597, 486.349,386.918, 486.349,448c0,61.082-50.995,100.403-105.011,152.883C 341.862,639.232, 287.846,691.763, 287.846,725.606l-2.406,51.2
		C 337.971,748.544, 421.274,721.562, 512,721.562s 174.438,26.982, 226.97,55.245l-2.816-51.2c0-33.843-54.016-86.374-93.44-124.723
		C 588.646,548.403, 537.651,509.082, 537.651,448z"  />
<glyph unicode="&#xe019;" d="M 416.154,253.338c-35.328-61.235-11.571-111.616, 37.427-139.878s 104.55-23.757, 139.878,37.478c 35.328,61.184, 258.406,607.539, 239.002,618.752
	C 813.107,780.902, 451.482,314.573, 416.154,253.338z M 512,642.458c 22.426,0, 44.288-1.946, 65.587-5.53c 22.426,28.058, 47.565,58.982, 71.987,88.422
	C 605.952,737.997, 559.923,744.858, 512,744.858c-287.078,0-512-242.074-512-551.117c0-19.046, 0.87-38.042, 2.509-56.576
	c 2.509-28.16, 27.648-48.896, 55.552-46.438c 28.16,2.56, 48.947,27.392, 46.438,55.552C 103.117,161.792, 102.4,177.766, 102.4,193.741
	C 102.4,445.338, 282.368,642.458, 512,642.458z M 881.613,578.509c-14.285-38.4-29.389-77.517-42.701-111.36C 890.982,391.885, 921.6,297.523, 921.6,193.741
	c0-16.23-0.717-32.563-2.15-48.384c-2.56-28.16, 18.176-53.043, 46.336-55.654c 1.587-0.154, 3.123-0.205, 4.71-0.205
	c 26.163,0, 48.486,20.019, 50.893,46.541C 1023.13,154.982, 1024,174.387, 1024,193.741C 1024,344.832, 970.138,479.898, 881.613,578.509z"  />
<glyph unicode="&#xe11d;" d="M 1011.354,402.893c-31.949,87.45-121.19,139.622-238.694,139.622c-4.557,0-9.011-0.154-13.414-0.358l-0.768,105.574
	c0,0, 174.541,30.157, 180.429,31.181s 6.861,6.093, 5.632,11.776c-1.178,5.683-8.55,45.261-9.626,50.022c-1.434,6.656-5.274,6.502-10.598,5.581
	s-166.451-23.654-166.451-23.654s-0.563,100.045-0.614,106.445c-0.051,6.4-3.584,8.141-9.933,8.038c-6.4-0.102-47.155-0.717-52.531-0.819
	c-5.376-0.051-8.346-2.509-8.243-7.629c 0.102-5.12, 1.69-118.067, 1.69-118.067s-156.774-27.085-161.075-27.802s-8.704-2.765-7.68-7.322
	c 0.973-4.557, 9.728-55.962, 10.65-60.006c 0.87-4.045, 3.635-6.502, 9.574-5.478s 149.76,25.856, 149.76,25.856l 1.792-103.322
	c-55.142-14.49-92.211-42.189-115.507-66.714c-39.322-41.318-61.798-96.614-61.798-151.706c0-81.306, 49.664-129.485, 119.142-137.984
	c 161.946-19.814, 262.093,156.621, 295.424,241.357c 56.218-77.056, 13.158-222.925-107.213-306.125c-2.15-1.587-4.966-6.605-1.638-10.598
	s 27.648-33.894, 31.693-38.81c 4.045-4.813, 10.547-2.918, 13.107-1.075C 992.973,149.299, 1051.853,291.891, 1011.354,402.893z M 633.139,239.718
	c-49.408,6.195-48.282,46.797-48.282,74.394c0,39.578, 16.742,80.896, 44.8,110.387c 17.203,18.074, 38.4,31.795, 62.925,40.909l 4.198-218.982
	C 677.171,239.718, 655.974,236.902, 633.139,239.718z M 757.453,267.981l 2.304,210.381c 4.301,0.205, 8.55,0.512, 12.902,0.512
	c 39.578,0, 76.544-7.424, 96.563-18.534C 889.242,449.229, 816.845,321.485, 757.453,267.981z M 299.162,660.582C 297.626,665.395, 293.939,667.955, 289.178,667.955
	l-99.84,0 c-4.71,0-8.448-2.56-9.933-7.373C 158.362,594.074, 1.178,97.792, 0.41,95.283c-0.87-2.714-0.563-3.891, 3.174-3.891l 88.73,0 
	c 3.84,0, 5.069,1.178, 5.786,3.686c 0.819,2.611, 51.661,169.882, 51.661,169.882l 178.995,0 c0,0, 50.842-167.322, 51.61-169.882
	c 0.819-2.509, 1.946-3.686, 5.837-3.686l 88.678,0 c 3.789,0, 4.096,1.178, 3.174,3.891C 477.389,97.792, 320.256,594.074, 299.162,660.582z M 165.222,337.101
	l 74.086,268.8l 74.035-268.8L 165.222,337.101 z"  />
<glyph unicode="&#xe11e;" d="M 269.978,606.003c 10.291,0, 20.224-1.536, 29.542-4.454C 334.848,641.126, 374.016,677.171, 416.41,709.12C 414.669,716.544, 413.594,724.326, 413.594,732.365
	c0,11.162, 1.843,21.811, 5.222,31.744C 371.354,798.208, 319.642,826.778, 264.755,848.896C 213.197,817.050, 168.294,775.526, 132.506,726.886
	c 26.573-47.053, 58.214-90.931, 94.106-130.918C 239.77,602.368, 254.464,606.003, 269.978,606.003z M 169.779,505.805c0,14.029, 2.918,27.443, 8.141,39.578
	C 145.818,580.71, 116.634,618.803, 91.085,659.456C 59.085,595.866, 40.96,524.032, 40.96,448c0-88.115, 24.269-170.496, 66.355-240.998
	c 15.002,84.736, 43.571,164.864, 82.944,238.285C 177.459,462.080, 169.779,483.021, 169.779,505.805z M 513.792,832.614c 26.522,0, 50.483-10.342, 68.403-27.085
	c 52.275,22.477, 107.366,39.731, 164.659,50.739C 677.683,896.102, 597.555,919.040, 512,919.040c-58.317,0-114.125-10.701-165.632-30.106
	c 40.909-20.224, 79.923-43.725, 116.531-70.349C 477.85,827.443, 495.206,832.614, 513.792,832.614z M 663.706,360.55c 6.246,13.005, 15.104,24.474, 26.061,33.587
	c-29.594,91.034-76.442,174.285-136.806,245.965c-12.032-5.12-25.242-7.936-39.168-7.936c-21.709,0-41.779,7.014-58.214,18.739
	c-36.352-27.597-69.939-58.573-100.506-92.365C 364.595,543.232, 370.176,525.21, 370.176,505.805c0-10.496-1.587-20.531-4.557-30.054
	C 453.53,417.024, 554.701,376.73, 663.706,360.55z M 793.702,225.229c 1.331-18.944, 2.099-38.093, 2.099-57.395c0-34.048-2.202-67.482-6.298-100.403
	c 79.923,58.368, 140.698,141.158, 171.418,237.517c-36.352-8.806-73.626-15.104-111.667-18.739C 840.294,258.816, 819.917,236.595, 793.702,225.229z
	 M 640.205,293.222c-116.275,19.251-224.102,63.59-317.901,127.181c-15.258-9.37-33.075-14.848-52.275-14.848c-7.066,0-13.875,0.768-20.531,2.15
	c-44.902-85.197-73.626-180.224-81.92-280.883c 44.851-48.077, 99.584-86.784, 161.075-112.794C 404.941,131.328, 511.642,228.454, 640.205,293.222z M 828.211,797.082
	c-75.469-7.27-147.558-26.214-214.682-54.682c 0.41-3.277, 0.563-6.656, 0.563-10.035c0-15.821-3.738-30.72-10.291-43.981
	c 67.072-78.746, 119.142-170.496, 152.064-270.899c 40.704-0.768, 75.571-25.702, 90.573-61.184c 45.363,4.608, 89.498,13.312, 132.045,25.805
	C 981.402,403.61, 983.040,425.574, 983.040,448C 983.040,586.445, 923.29,710.963, 828.211,797.082z M 690.637,239.667c-120.064-56.218-220.365-142.797-293.069-248.627
	C 434.176-18.125, 472.525-23.040, 512-23.040c 71.117,0, 138.394,15.821, 198.81,43.981c 9.677,47.462, 14.848,96.563, 14.848,146.893
	c0,18.125-0.87,36.147-2.202,54.016C 711.373,225.69, 700.262,231.782, 690.637,239.667z"  />
<glyph unicode="&#xe01a;" d="M 905.728,718.029c-25.702,152.474-164.864,254.31-310.733,227.379c-145.92-26.88-269.005-144.179-243.302-296.653C 357.274,615.936, 372.582,564.531, 390.758,527.667
	l-264.96-395.418c-9.779-14.592-15.309-40.909-12.39-58.419l 17.050-100.915c 2.97-17.51, 19.098-29.286, 35.84-26.214l 77.619,14.285
	c 16.794,3.123, 38.042,17.869, 47.309,32.819l 104.806,169.472l 0.922,1.075l 70.912,13.107l 122.317,198.554c 40.243-7.117, 97.894-4.71, 131.994,1.587
	C 868.147,404.531, 931.482,565.555, 905.728,718.029z M 776.499,639.898c-40.141-59.853-81.050-17.664-138.394,24.32
	c-57.293,41.933-109.312,67.738-69.171,127.59c 40.141,59.904, 119.091,74.496, 176.435,32.512C 802.714,782.387, 816.64,699.75, 776.499,639.898z"  />
<glyph unicode="&#xe01b;" d="M 788.89,448c0,141.619, 65.382,221.184, 116.582,221.184c 18.637,0, 67.277,0, 67.277,0C 938.598,723.405, 910.336,755.2, 785.562,755.2L 273.152,755.2 
	C 81.971,755.2,0,579.021,0,448s 81.971-307.2, 273.152-307.2l 512.41,0 c 124.826,0, 153.037,31.795, 187.238,86.067c0,0-16.077,0-67.277,0S 788.89,306.432, 788.89,448z
	 M 649.626,356.147c-8.346-12.902-34.56-0.819-34.56-0.819l-151.398,68.403c0,0-13.517-34.253-23.962-58.368s-18.483-51.456-61.901-20.89
	c-43.469,30.566-183.296,166.4-183.296,166.4s-17.715,14.49-8.858,28.16C 193.997,551.936, 220.211,539.853, 220.211,539.853l 151.398-68.403
	c0,0, 13.517,34.202, 23.962,58.368C 406.016,553.882, 414.054,581.274, 457.472,550.707c 43.469-30.566, 183.347-166.451, 183.347-166.451S 658.432,369.818, 649.626,356.147z
	 M 966.4,554.138l-38.298,0 c-28.672,0-56.627-38.656-56.627-101.376s 28.006-101.325, 56.627-101.325l 38.298,0 c 28.621,0, 57.6,38.605, 57.6,101.325
	S 995.021,554.138, 966.4,554.138z"  />
<glyph unicode="&#xe01c;" d="M 580.147,888.32L 580.147,888.32c-251.29,0-409.498-86.579-398.899-156.16C 184.32,712.294, 192.768,658.176, 203.469,590.080
	c-123.136-47.821-163.942-125.286-158.464-188.518c 6.451-74.803, 73.779-154.88, 221.594-168.755c 84.378-7.834, 185.907,38.4, 251.75,117.504
	c-6.298,10.65-9.882,22.938-9.882,36.198c0,39.578, 32.051,71.68, 71.629,71.68s 71.68-32.102, 71.68-71.68c0-39.014-31.232-70.707-70.042-71.578
	c-78.336-101.018-197.581-161.946-310.528-154.829c 2.611-16.64, 3.635-22.938, 4.915-31.386c 4.659-29.594, 120.166-120.832, 303.974-120.986l 0.051,0 
	c 183.808,0.154, 299.366,91.392, 303.974,120.986C 888.678,158.157, 968.192,661.504, 978.944,732.16C 989.594,801.69, 831.334,888.32, 580.147,888.32z M 116.429,407.808
	c-2.816,32.87, 23.296,76.646, 98.458,109.517c 10.803-68.659, 22.579-143.206, 32.922-208.64C 165.683,324.813, 119.91,367.616, 116.429,407.808z M 580.096,625.971
	C 396.288,626.074, 265.882,694.323, 265.882,719.77c-0.102,25.344, 130.406,93.696, 314.214,93.594c 183.808,0.102, 314.368-68.25, 314.266-93.594
	C 894.362,694.323, 763.955,626.074, 580.096,625.971z"  />
<glyph unicode="&#xe01d;" d="M 622.797,45.619c-1.434-15.872, 11.11-29.901, 27.955-31.283l 204.032-16.742c 16.794-1.382, 31.795,10.394, 33.229,26.266l 15.974,168.243
	l-265.267,21.862L 622.797,45.619z M 120.013,192.051l 15.923-168.243c 1.485-15.872, 16.486-27.648, 33.28-26.266l 204.032,16.742
	c 16.794,1.382, 29.389,15.462, 27.904,31.283l-15.974,168.294L 120.013,192.051z M 93.747,469.35l 16.435-173.568l 265.267,21.811L 358.963,491.008
	C 358.605,495.155, 358.4,499.507, 358.4,503.757C 358.4,583.424, 427.315,648.192, 512,648.192s 153.6-64.819, 153.6-144.435c0-4.25-0.205-8.55-0.614-12.749l-16.384-173.414l 265.216-21.811
	l 16.435,173.568C 931.277,480.819, 931.84,492.339, 931.84,503.757C 931.84,721.459, 743.475,898.56, 512,898.56S 92.16,721.459, 92.16,503.757
	C 92.16,492.339, 92.723,480.819, 93.747,469.35z"  />
<glyph unicode="&#xe01e;" d="M 956.621,376.422l-161.178,383.59c-12.698,25.6-46.49,46.541-75.11,46.541L 303.718,806.554 c-28.621,0-62.413-20.941-75.162-46.541l-161.126-383.59
		c-12.8-25.6-19.405-69.632-14.694-97.894l 34.816-188.723c 4.71-28.211, 31.898-51.302, 60.467-51.302l 728.064,0 c 28.621,0, 55.808,23.091, 60.518,51.302
		l 34.816,188.723C 975.974,306.739, 969.421,350.822, 956.621,376.422z M 886.784,241.971l-13.21-76.902c-3.994-29.542-30.618-53.709-59.085-53.709L 209.51,111.36 
		c-28.518,0-55.091,24.166-59.085,53.709l-13.261,76.902c-3.942,29.542, 16.128,53.709, 44.698,53.709l 660.275,0 
		C 870.707,295.629, 890.778,271.514, 886.784,241.971z"  />
<glyph unicode="&#xe01f;" d="M 512,867.84c-219.085,0-355.226-72.192-347.853-130.765l 73.83-607.59C 240.896,105.83, 351.693,28.314, 512,28.16
		c 160.358,0.154, 271.104,77.722, 274.074,101.325l 73.779,607.59C 867.226,795.648, 731.136,867.84, 512,867.84z M 512,648.141C 351.693,648.294, 237.926,705.382, 237.926,726.733
		C 237.875,747.93, 351.693,805.171, 512,805.069c 160.307,0.051, 274.125-57.139, 274.074-78.336C 786.074,705.382, 672.358,648.294, 512,648.141z"  />
<glyph unicode="&#xe020;" d="M 627.866,316.518c0,0, 361.421,260.762, 321.331,559.258c-0.922,6.554-3.072,10.854-5.734,13.773c-2.816,2.714-7.014,4.966-13.466,5.888
	C 638.31,936.346, 383.488,566.528, 383.488,566.528C 162.406,593.050, 178.483,548.915, 77.619,306.688c-19.302-46.182, 11.981-62.106, 46.285-49.101
	c 34.304,12.902, 110.029,41.523, 110.029,41.523l 132.557-135.629c0,0-27.955-77.466-40.602-112.538c-12.646-35.174, 2.867-67.174, 48.026-47.462
	C 610.662,106.752, 653.773,90.317, 627.866,316.518z M 679.475,619.418c-30.618,31.334-30.618,82.125,0,113.459c 30.618,31.283, 80.23,31.283, 110.848,0
	c 30.669-31.283, 30.669-82.125,0-113.459C 759.757,588.032, 710.093,588.032, 679.475,619.418z"  />
<glyph unicode="&#xe021;" d="M 141.466,265.626c-77.517-76.186-12.032-154.419-115.046-270.387c-46.49-52.326, 191.386-36.352, 309.248,79.514
	c 49.971,49.101, 35.891,120.73-17.715,173.466C 264.346,300.902, 191.437,314.726, 141.466,265.626z M 1000.499,926.31c-39.782,39.066-480.205-313.856-611.328-442.726
	c-65.075-63.949-86.784-98.253-106.752-123.904c-8.653-11.162, 2.816-14.592, 7.936-17.254c 25.754-13.107, 43.776-25.293, 67.123-48.23
	c 23.347-22.886, 35.789-40.602, 49.101-65.946c 2.662-5.069, 6.195-16.333, 17.51-7.782c 26.112,19.61, 60.979,40.96, 126.003,104.909
	C 681.216,454.246, 1040.179,887.194, 1000.499,926.31z"  />
<glyph unicode="&#xe022;" d="M 921.6,755.2l-51.2,0 l0-768 l 51.2,0 c 56.32,0, 102.4,46.080, 102.4,102.4L 1024,652.8 C 1024,709.12, 977.92,755.2, 921.6,755.2z M0,652.8l0-563.2 c0-56.32, 46.080-102.4, 102.4-102.4l 51.2,0 L 153.6,755.2 L 102.4,755.2 C 46.080,755.2,0,709.12,0,652.8z M 686.080,862.362
	C 651.213,878.592, 595.558,908.8, 512,908.8S 372.787,878.592, 337.92,862.362L 337.92,755.2 L 225.28,755.2 l0-768 l 573.44,0 L 798.72,755.2 L 686.080,755.2 L 686.080,862.362 z M 624.64,755.2L 399.36,755.2 L 399.36,823.552 C 426.65,835.328, 465.818,847.36, 512,847.36
	s 85.299-11.981, 112.64-23.757L 624.64,755.2 z"  />
<glyph unicode="&#xe023;" d="M 512,341.555c 122.368,0, 224.819,41.574, 231.014,95.898c-18.176,51.046-38.042,106.701-57.549,161.434c-13.517-39.014-88.32-66.56-173.466-66.56
	S 352.102,559.821, 338.483,598.835C 318.976,544.102, 299.213,488.499, 280.986,437.402C 287.181,383.13, 389.581,341.555, 512,341.555z M 512,684.851
	c 57.498,0, 110.95,17.818, 126.618,45.466c-21.555,60.57-40.090,112.486-51.814,145.254C 579.072,897.434, 543.795,908.8, 512,908.8S 444.928,897.434, 437.197,875.622
	c-11.725-32.768-30.208-84.736-51.814-145.254C 401.050,702.669, 454.502,684.851, 512,684.851z M 961.536,291.021l-192.256,77.466l 22.17-61.798
	c-1.126-65.434-128.256-117.658-279.45-117.658s-278.323,52.224-279.398,117.658l 22.118,61.798L 62.464,291.021c-53.914-21.76-56.166-61.952-5.069-89.344
	l 361.574-193.894c 51.149-27.392, 134.861-27.392, 186.010,0l 361.574,193.894C 1017.754,229.069, 1015.45,269.261, 961.536,291.021z"  />
<glyph unicode="&#xe111;" d="M 512,939.571c-271.053,0-491.52-220.57-491.52-491.571c0-271.053, 220.467-491.571, 491.52-491.571s 491.52,220.518, 491.52,491.571
	C 1003.52,719.002, 783.053,939.571, 512,939.571z M 931.226,448c0-95.898-32.563-184.371-86.835-255.027c-15.36,12.032-31.642,44.442-16.282,78.029
	c 15.462,33.792, 19.507,112.026, 15.974,142.438c-3.379,30.413-19.2,103.731-62.208,104.448c-42.854,0.666-72.294,14.797-97.792,65.69
	c-52.89,105.83, 99.277,126.208, 46.387,184.832c-14.797,16.435-91.29-67.789-102.502,44.442C 627.2,820.89, 634.88,832.922, 645.12,845.363
	C 811.213,789.555, 931.226,632.576, 931.226,448z M 454.4,863.027C 444.416,843.571, 417.946,835.584, 401.818,820.89C 366.848,789.248, 351.795,793.6, 332.902,763.187
	c-18.944-30.413-80.179-74.189-80.179-96.205c0-21.965, 30.925-47.974, 46.387-42.906c 15.462,5.12, 56.218,4.813, 80.179-3.584
	c 24.013-8.499, 200.448-16.947, 144.179-166.093c-17.818-47.411-95.846-39.424-116.634-117.965c-3.123-11.52-13.875-60.723-14.643-76.8
	c-1.229-24.883, 17.613-118.682-6.4-118.682c-24.115,0-88.934,83.917-88.934,99.123s-16.845,68.557-16.845,114.176s-77.67,44.902-77.67,105.574
	c0,54.784, 42.138,82.022, 32.666,108.186c-9.318,26.112-83.302,27.034-114.125,30.208C 174.746,738.099, 301.568,841.933, 454.4,863.027z M 380.16,50.176
	c 25.19,13.261, 27.75,30.464, 50.586,31.386c 26.112,1.126, 47.36,10.189, 76.749,16.64c 26.163,5.683, 72.858,32.205, 114.074,35.584
	c 34.662,2.867, 103.168-1.792, 121.6-35.277c-66.355-44.032-145.818-69.734-231.168-69.734C 465.92,28.774, 421.632,36.352, 380.16,50.176z"  />
<glyph unicode="&#xe024;" d="M 952.32,755.2L 71.68,755.2 C 32.256,755.2,0,722.944,0,683.52l0-471.091 C0,173.056, 32.256,140.8, 71.68,140.8l 880.64,0 c 39.475,0, 71.68,32.256, 71.68,71.629L 1024,683.52 C 1024,722.944, 991.744,755.2, 952.32,755.2
	z M 563.2,652.8l 102.4,0 l0-102.4 l-102.4,0 L 563.2,652.8 z M 716.8,499.2l0-102.4 l-102.4,0 L 614.4,499.2 L 716.8,499.2 z M 409.6,652.8l 102.4,0 l0-102.4 L 409.6,550.4 L 409.6,652.8 z M 563.2,499.2l0-102.4 L 460.8,396.8 L 460.8,499.2 L 563.2,499.2 z M 256,652.8l 102.4,0 l0-102.4 L 256,550.4 L 256,652.8 z M 409.6,499.2l0-102.4 L 307.2,396.8 L 307.2,499.2 L 409.6,499.2 z M 102.4,652.8l 102.4,0 l0-102.4 L 102.4,550.4 L 102.4,652.8 z M 256,499.2l0-102.4 L 153.6,396.8 L 153.6,499.2 L 256,499.2 z M 204.8,243.2
	L 102.4,243.2 l0,102.4 l 102.4,0 L 204.8,243.2 z M 768,243.2L 256,243.2 l0,102.4 l 512,0 L 768,243.2 z M 921.6,243.2l-102.4,0 l0,102.4 l 102.4,0 L 921.6,243.2 z M 768,396.8L 768,499.2 l 102.4,0 l0-102.4 L 768,396.8 z M 921.6,550.4l-204.8,0 L 716.8,652.8 l 204.8,0 L 921.6,550.4 z"  />
<glyph unicode="&#xe025;" d="M 921.6,857.6L 102.4,857.6 C 46.080,857.6,0,811.52,0,755.2l0-614.4 c0-56.371, 46.080-102.4, 102.4-102.4l 819.2,0 c 56.32,0, 102.4,46.029, 102.4,102.4L 1024,755.2 C 1024,811.52, 977.92,857.6, 921.6,857.6z M 235.52,761.856
	c 21.248,0, 38.4-16.691, 38.4-37.325c0-20.685-17.152-37.376-38.4-37.376S 197.12,703.846, 197.12,724.48C 197.12,745.165, 214.323,761.856, 235.52,761.856z M 94.72,724.48
	c0,20.634, 17.152,37.325, 38.4,37.325S 171.52,745.165, 171.52,724.48c0-20.685-17.152-37.376-38.4-37.376S 94.72,703.846, 94.72,724.48z M 922.624,140.8L 101.376,140.8 L 101.376,611.84 l 821.248,0 
	L 922.624,140.8 z M 922.624,693.76L 307.2,693.76 L 307.2,755.2 l 615.424,0 L 922.624,693.76 z"  />
<glyph unicode="&#xe026;" d="M 921.6,908.8L 102.4,908.8 C 46.080,908.8,0,862.72,0,806.4l0-614.4 c0-56.32, 46.080-101.376, 102.4-101.376l 203.776,0 L 306.176,190.976 l-204.8,0 L 101.376,663.040 l 821.248,0 l0-472.064 l-204.8,0 l0-100.403 L 921.6,90.573 c 56.371,0, 102.4,45.107, 102.4,101.376L 1024,806.4 
	C 1024,862.72, 977.971,908.8, 921.6,908.8z M 133.171,738.304c-21.248,0-38.4,16.742-38.4,37.376s 17.152,37.376, 38.4,37.376c 21.197,0, 38.4-16.742, 38.4-37.376
	S 154.368,738.304, 133.171,738.304z M 235.571,738.304c-21.248,0-38.4,16.742-38.4,37.376s 17.152,37.376, 38.4,37.376c 21.197,0, 38.4-16.742, 38.4-37.376
	S 256.768,738.304, 235.571,738.304z M 922.675,743.936L 306.176,743.936 L 306.176,807.424 l 616.448,0 L 922.624,743.936 z M 509.338,541.491l-248.422-246.886l 153.6,0 L 414.515-12.8 l 189.645,0 l0,307.405 l 153.6,0 L 509.338,541.491z"  />
<glyph unicode="&#xe027;" d="M 921.6,704L 102.4,704 C 46.080,704,0,657.92,0,601.6l0-307.2 c0-56.32, 46.080-102.4, 102.4-102.4l 819.2,0 c 56.371,0, 102.4,46.080, 102.4,102.4L 1024,601.6 C 1024,657.92, 977.971,704, 921.6,704z M 921.6,294.4L 102.4,294.4 L 102.4,601.6 l 819.2,0 L 921.6,294.4 z M 870.4,549.376l-204.8,0 
			l0-202.701 l 204.8,0 L 870.4,549.376 z M 614.4,549.376L 409.6,549.376 l0-202.701 l 204.8,0 L 614.4,549.376 z M 358.4,549.376L 153.6,549.376 l0-202.701 l 204.8,0 L 358.4,549.376 z"  />
<glyph unicode="&#xe028;" d="M 921.6,704L 102.4,704 C 46.080,704,0,657.92,0,601.6l0-307.2 c0-56.32, 46.080-102.4, 102.4-102.4l 819.2,0 c 56.371,0, 102.4,46.080, 102.4,102.4L 1024,601.6 C 1024,657.92, 977.971,704, 921.6,704z M 921.6,294.4L 102.4,294.4 L 102.4,601.6 l 819.2,0 L 921.6,294.4 z M 614.4,549.376L 409.6,549.376 
			l0-202.701 l 204.8,0 L 614.4,549.376 z M 358.4,549.376L 153.6,549.376 l0-202.701 l 204.8,0 L 358.4,549.376 z"  />
<glyph unicode="&#xe029;" d="M 921.6,704L 102.4,704 C 46.080,704,0,657.92,0,601.6l0-307.2 c0-56.32, 46.080-102.4, 102.4-102.4l 819.2,0 c 56.371,0, 102.4,46.080, 102.4,102.4L 1024,601.6 C 1024,657.92, 977.971,704, 921.6,704z M 921.6,294.4L 102.4,294.4 L 102.4,601.6 l 819.2,0 L 921.6,294.4 z M 358.4,549.376L 153.6,549.376 
			l0-202.701 l 204.8,0 L 358.4,549.376 z"  />
<glyph unicode="&#xe02a;" d="M 921.6,704L 102.4,704 C 46.080,704,0,657.92,0,601.6l0-307.2 c0-56.32, 46.080-102.4, 102.4-102.4l 819.2,0 c 56.32,0, 102.4,46.080, 102.4,102.4L 1024,601.6 C 1024,657.92, 977.92,704, 921.6,704z M 921.6,294.4L 102.4,294.4 L 102.4,601.6 l 819.2,0 L 921.6,294.4 z"  />
<glyph unicode="&#xe02b;" d="M 512,611.84c-90.829,0-163.84-72.96-163.84-163.84s 72.96-163.84, 163.84-163.84s 163.84,72.96, 163.84,163.84S 602.829,611.84, 512,611.84z M 512,342.989
	c-58.010,0-104.96,47.002-104.96,104.96c0,58.010, 46.95,104.96, 104.96,104.96s 104.96-46.95, 104.96-104.96C 616.96,389.99, 570.010,342.989, 512,342.989z M 204.8,488.96
	c-28.262,0-51.2-18.33-51.2-40.96s 22.938-40.96, 51.2-40.96s 50.176,18.33, 50.176,40.96S 233.062,488.96, 204.8,488.96z M 763.238,699.238c-15.974,15.974-45.158,12.749-65.126-7.219
	c-20.019-20.019-23.245-49.152-7.27-65.178s 45.158-12.749, 65.126,7.219C 775.987,654.029, 779.264,683.213, 763.238,699.238z M 819.2,488.96
	c-28.314,0-50.176-18.33-50.176-40.96s 21.914-40.96, 50.176-40.96s 51.2,18.33, 51.2,40.96S 847.514,488.96, 819.2,488.96z M 512,192c-22.579,0-40.96-22.938-40.96-51.2
	c0-28.314, 18.33-51.2, 40.96-51.2s 40.96,22.886, 40.96,51.2C 552.96,169.062, 534.579,192, 512,192z M 267.981,256.819c-19.968-20.019-23.245-49.203-7.27-65.178
	s 45.21-12.698, 65.178,7.27c 20.019,20.019, 23.245,49.203, 7.27,65.178C 317.184,280.013, 288,276.787, 267.981,256.819z M 258.202,696.678
	C 242.176,680.653, 245.453,651.52, 265.472,631.501c 20.019-19.968, 49.152-23.245, 65.178-7.219s 12.749,45.158-7.27,65.126
	C 303.411,709.427, 274.176,712.653, 258.202,696.678z M 700.672,201.421c 20.019-19.968, 49.152-23.194, 65.126-7.219s 12.749,45.158-7.219,65.126
	c-20.019,20.019-49.203,23.245-65.178,7.27S 680.653,221.389, 700.672,201.421z M 512,704c 22.579,0, 40.96,22.938, 40.96,51.2S 534.579,806.4, 512,806.4S 471.040,783.462, 471.040,755.2
	S 489.421,704, 512,704z"  />
<glyph unicode="&#xe02c;" d="M 972.8,488.96c-9.318,0-40.909,0-50.176,0c-28.262,0-51.2-18.33-51.2-40.96s 22.938-40.96, 51.2-40.96c 9.318,0, 40.909,0, 50.176,0c 28.314,0, 51.2,18.33, 51.2,40.96
	S 1001.114,488.96, 972.8,488.96z M 512,729.6C 355.84,729.6, 230.4,604.16, 230.4,448c0-156.211, 125.44-281.6, 281.6-281.6c 156.211,0, 281.6,125.389, 281.6,281.6
	C 793.6,604.16, 668.211,729.6, 512,729.6z M 512,243.2c-113.152,0-204.8,91.648-204.8,204.8c0,113.101, 91.648,204.8, 204.8,204.8s 204.8-91.699, 204.8-204.8C 716.8,334.848, 625.152,243.2, 512,243.2z M 152.525,448
	c0,22.63-21.862,40.96-50.125,40.96c-9.472,0-41.779,0-51.2,0c-28.262,0-51.2-18.33-51.2-40.96s 22.938-40.96, 51.2-40.96c 9.421,0, 41.728,0, 51.2,0
	C 130.662,407.040, 152.525,425.37, 152.525,448z M 512,806.4c 22.579,0, 40.96,22.938, 40.96,51.2c0,9.37,0,41.83,0,51.2c0,28.262-18.33,51.2-40.96,51.2S 471.040,937.062, 471.040,908.8
	c0-9.37,0-41.83,0-51.2C 471.040,829.338, 489.421,806.4, 512,806.4z M 512,89.6c-22.579,0-40.96-22.938-40.96-51.2c0-9.37,0-41.83,0-51.2c0-28.314, 18.33-51.2, 40.96-51.2
	s 40.96,22.886, 40.96,51.2c0,9.37,0,41.83,0,51.2C 552.96,66.662, 534.579,89.6, 512,89.6z M 889.088,767.181c 20.019,20.019, 23.245,49.203, 7.27,65.178
	s-45.158,12.749-65.126-7.27c-5.478-5.53-30.31-30.31-35.84-35.84c-20.019-20.019-23.245-49.152-7.27-65.126s 45.21-12.8, 65.178,7.219
	C 858.778,736.87, 883.61,761.651, 889.088,767.181z M 170.701,164.659c-5.53-5.53-30.31-30.362-35.84-35.84c-19.968-20.019-23.194-49.152-7.219-65.126
	c 15.974-15.974, 45.158-12.749, 65.126,7.219c 5.53,5.478, 30.362,30.31, 35.84,35.84c 20.019,20.019, 23.245,49.152, 7.219,65.126
	S 190.669,184.576, 170.701,164.659z M 192.819,825.139C 172.8,845.107, 143.667,848.384, 127.642,832.358S 114.893,787.2, 134.861,767.181
	c 5.53-5.53, 30.31-30.31, 35.84-35.84c 20.019-19.968, 49.152-23.245, 65.126-7.219s 12.8,45.158-7.219,65.126C 223.13,794.778, 198.349,819.61, 192.819,825.139z
	 M 795.341,106.701c 5.53-5.53, 30.362-30.362, 35.84-35.84c 20.019-19.968, 49.203-23.194, 65.178-7.219c 15.974,15.974, 12.698,45.158-7.27,65.126
	c-5.53,5.478-30.362,30.31-35.84,35.84c-20.019,19.968-49.203,23.194-65.178,7.219S 775.424,126.72, 795.341,106.701z"  />
<glyph unicode="&#xe02d;" d="M 972.8,488.96c-9.318,0-40.909,0-50.176,0c-28.262,0-51.2-18.33-51.2-40.96s 22.938-40.96, 51.2-40.96c 9.318,0, 40.909,0, 50.176,0c 28.314,0, 51.2,18.33, 51.2,40.96
	S 1001.114,488.96, 972.8,488.96z M 512,729.6C 355.84,729.6, 230.4,604.16, 230.4,448c0-156.211, 125.44-281.6, 281.6-281.6c 156.16,0, 281.6,125.389, 281.6,281.6
	C 793.6,604.16, 668.16,729.6, 512,729.6z M 517.12,243.2C 398.848,243.2, 307.2,334.848, 307.2,448c0,113.101, 91.648,204.8, 209.92,204.8L 517.12,243.2 z M 152.525,448c0,22.63-21.862,40.96-50.125,40.96
	c-9.472,0-41.779,0-51.2,0c-28.262,0-51.2-18.33-51.2-40.96s 22.938-40.96, 51.2-40.96c 9.421,0, 41.728,0, 51.2,0C 130.662,407.040, 152.525,425.37, 152.525,448z M 512,806.4
	c 22.579,0, 40.96,22.938, 40.96,51.2c0,9.37,0,41.83,0,51.2c0,28.262-18.33,51.2-40.96,51.2S 471.040,937.062, 471.040,908.8c0-9.37,0-41.83,0-51.2C 471.040,829.338, 489.421,806.4, 512,806.4z
	 M 512,89.6c-22.579,0-40.96-22.938-40.96-51.2c0-9.37,0-41.83,0-51.2c0-28.314, 18.33-51.2, 40.96-51.2s 40.96,22.886, 40.96,51.2c0,9.37,0,41.83,0,51.2
	C 552.96,66.662, 534.579,89.6, 512,89.6z M 889.088,767.181c 20.019,20.019, 23.245,49.203, 7.27,65.178s-45.158,12.749-65.126-7.27
	c-5.478-5.53-30.31-30.31-35.84-35.84c-20.019-20.019-23.245-49.152-7.27-65.126s 45.21-12.8, 65.178,7.219
	C 858.778,736.87, 883.61,761.651, 889.088,767.181z M 170.701,164.659c-5.53-5.53-30.31-30.362-35.84-35.84c-19.968-20.019-23.194-49.152-7.219-65.126
	c 15.974-15.974, 45.158-12.749, 65.126,7.219c 5.53,5.478, 30.362,30.31, 35.84,35.84c 20.019,20.019, 23.245,49.152, 7.219,65.126
	S 190.669,184.576, 170.701,164.659z M 192.819,825.139C 172.8,845.107, 143.667,848.384, 127.642,832.358S 114.893,787.2, 134.861,767.181
	c 5.53-5.53, 30.31-30.31, 35.84-35.84c 20.019-19.968, 49.152-23.245, 65.126-7.219s 12.8,45.158-7.219,65.126C 223.13,794.778, 198.349,819.61, 192.819,825.139z
	 M 795.341,106.701c 5.53-5.53, 30.362-30.362, 35.84-35.84c 20.019-19.968, 49.203-23.194, 65.126-7.219c 15.974,15.974, 12.749,45.158-7.219,65.126
	c-5.53,5.478-30.362,30.31-35.84,35.84c-20.019,19.968-49.203,23.194-65.178,7.219S 775.424,126.72, 795.341,106.701z"  />
<glyph unicode="&#xe02e;" d="M 389.734,741.99c-18.79,17.664-44.186,17.664-63.027,0L0,448l 326.707-293.939c 18.842-17.715, 44.237-17.715, 63.027,0s 18.79,46.387,0,64.102
	L 136.090,448l 253.696,229.786C 408.525,695.501, 408.525,724.224, 389.734,741.99z M 697.293,741.99c-18.842,17.664-44.186,17.664-63.027,0
	c-18.79-17.766-17.818-46.438, 1.075-64.154L 887.91,448l-252.621-229.837c-18.842-17.715-19.866-46.387-1.075-64.102
	c 18.842-17.715, 44.186-17.715, 63.027,0L 1024,448L 697.293,741.99z"  />
<glyph unicode="&#xe02f;" d="M 921.6,898.56L 102.4,898.56 c-56.32,0-102.4-46.080-102.4-102.4l0-563.2 c0-56.32, 45.158-111.462, 100.403-122.522l 223.846-44.749c0,0-192.666-68.25-68.25-68.25l 512,0 
	c 124.416,0-68.25,68.25-68.25,68.25l 223.846,44.749C 978.79,121.498, 1024,176.64, 1024,232.96l0,563.2 C 1024,852.48, 977.92,898.56, 921.6,898.56z M 921.6,238.080L 102.4,238.080 L 102.4,806.4 l 819.2,0 L 921.6,238.080 z"  />
<glyph unicode="&#xe030;" d="M 814.182,673.28c-106.445,0-223.078-59.29-302.182-149.248C 432.896,613.99, 316.211,673.28, 209.766,673.28C 108.339,673.28,0,614.093,0,448
	s 108.339-225.229, 209.766-225.28l0,0c 106.496,0, 223.13,59.29, 302.234,149.248c 79.104-89.958, 195.738-149.248, 302.182-149.248C 915.661,222.72, 1024,281.907, 1024,448
	S 915.661,673.28, 814.182,673.28z M 209.766,312.832c-77.414,0-116.685,45.466-116.685,135.168s 39.27,135.219, 116.685,135.219c 85.606,0, 185.037-55.603, 246.067-135.219
	C 394.803,368.384, 295.424,312.832, 209.766,312.832z M 814.182,312.832c-85.606,0-185.037,55.552-246.067,135.168c 60.979,79.616, 160.461,135.219, 246.067,135.219
	c 77.466,0, 116.685-45.517, 116.685-135.219S 891.648,312.832, 814.182,312.832z"  />
<glyph unicode="&#xe031;" d="M 367.872-21.504c 40.397-26.112, 87.194-43.776, 144.128-42.394
	c 56.934-1.382, 103.68,16.282, 144.077,42.394L 656.077,84.48 L 367.872,84.48 L 367.872-21.504 z M 650.035,145.971c0,223.027, 237.107,294.4, 219.341,516.557
	C 858.214,802.714, 763.238,960, 512,960S 165.786,802.714, 154.624,662.528c-17.766-222.208, 219.29-293.53, 219.29-516.557L 650.035,145.971 z M 263.066,654.438
	C 273.715,787.507, 364.237,854.989, 512,854.989c 147.763,0, 238.285-67.482, 248.883-200.55c 5.786-72.858-36.096-121.446-92.672-201.011
	c-41.626-58.675-90.88-127.949-113.92-218.163L 469.658,235.264 c-23.040,90.214-72.243,159.437-113.971,218.163C 299.162,533.043, 257.28,581.581, 263.066,654.438z"  />
<glyph unicode="&#xe032;" d="M 921.6,806.4L 102.4,806.4 C 46.080,806.4,0,760.32,0,704l0-512 c0-56.32, 46.080-102.4, 102.4-102.4l 819.2,0 c 56.32,0, 102.4,46.080, 102.4,102.4L 1024,704 C 1024,760.32, 977.92,806.4, 921.6,806.4z M 921.6,192L 102.4,192 L 102.4,499.2 l 819.2,0 L 921.6,192 z M 921.6,652.8L 102.4,652.8 L 102.4,704 l 819.2,0 L 921.6,652.8 z
	 M 204.8,391.68L 204.8,360.96 l 30.72,0 L 235.52,391.68 L 204.8,391.68 z M 389.12,330.24L 389.12,299.52 l 61.44,0 L 450.56,330.24 L 481.28,330.24 l0,30.72 L 512,360.96 L 512,391.68 L 450.56,391.68 L 450.56,360.96 L 419.84,360.96 l0-30.72 L 389.12,330.24 z M 512,299.52L 512,330.24 L 481.28,330.24 L 481.28,299.52 L 512,299.52 z M 358.4,299.52
	L 358.4,330.24 L 296.96,330.24 L 296.96,299.52 L 358.4,299.52 z M 389.12,360.96l 30.72,0 L 419.84,391.68 L 358.4,391.68 l0-61.44 l 30.72,0 L 389.12,360.96 z M 266.24,330.24l 30.72,0 l0,30.72 l 30.72,0 L 327.68,391.68 L 266.24,391.68 L 266.24,360.96 L 235.52,360.96 l0-30.72 L 204.8,330.24 L 204.8,299.52 l 61.44,0 L 266.24,330.24 z"  />
<glyph unicode="&#xe033;" d="M 856.422,302.592c-43.213-69.837-180.992-120.883-344.422-120.883c-163.328,0-301.21,51.046-344.371,120.883C 158.464,317.389, 153.6,309.453, 153.6,302.131
	c0-7.373,0-102.502,0-102.502C 153.6,100.352, 314.061-2.56, 512-2.56s 358.4,102.912, 358.4,202.189c0,0,0,95.13,0,102.502C 870.4,309.453, 865.485,317.389, 856.422,302.592z
	 M 856.934,564.48c-42.445-61.747-180.838-107.008-344.934-107.008s-302.49,45.261-344.934,107.008C 158.259,577.229, 153.6,570.317, 153.6,564.531c0-5.786,0-120.627,0-120.627
	c0-90.266, 160.461-163.379, 358.4-163.379s 358.4,73.114, 358.4,163.379c0,0,0,114.842,0,120.627C 870.4,570.317, 865.69,577.229, 856.934,564.48z M 512,898.56
	c-197.939,0-358.4-60.314-358.4-134.758l0-64.461 c0-78.95, 160.461-142.95, 358.4-142.95s 358.4,64, 358.4,142.95L 870.4,763.75 C 870.4,838.246, 709.939,898.56, 512,898.56z"  />
<glyph unicode="&#xe034;" d="M 788.48,662.989c-130.099,0-235.571-105.472-235.571-235.52c0-49.408, 15.258-95.232, 41.267-133.12L 429.824,294.349 C 455.782,332.237, 471.040,378.112, 471.040,427.52
	c0,130.048-105.472,235.52-235.52,235.52S0,557.568,0,427.52S 105.472,192, 235.52,192l 552.96,0 c 130.048,0, 235.52,105.472, 235.52,235.52S 918.528,662.989, 788.48,662.989z M 102.4,427.52
	c0,73.523, 59.597,133.12, 133.12,133.12s 133.12-59.597, 133.12-133.12c0-73.574-59.597-133.12-133.12-133.12S 102.4,353.946, 102.4,427.52z M 788.48,294.4c-73.574,0-133.171,59.546-133.171,133.12
	c0,73.523, 59.597,133.12, 133.171,133.12c 73.523,0, 133.12-59.597, 133.12-133.12C 921.6,353.946, 862.003,294.4, 788.48,294.4z"  />
<glyph unicode="&#xe035;" d="M 798.72,857.6L 737.28,704L 286.72,704 L 225.28,857.6C 185.856,857.6, 153.6,825.344, 153.6,785.92l0-778.24 C 153.6-31.744, 185.856-64, 225.28-64l 573.44,0 c 39.475,0, 71.68,32.256, 71.68,71.68L 870.4,785.92 
	C 870.4,825.344, 838.144,857.6, 798.72,857.6z M 696.32,755.2l 46.080,102.4l-111.616,0 L 593.92,960L 430.080,960 L 393.216,857.6L 281.6,857.6 l 46.080-102.4L 696.32,755.2 z"  />
<glyph unicode="&#xe036;" d="M 204.8,89.6c0-56.525, 45.875-102.4, 102.4-102.4c 56.576,0, 102.4,45.875, 102.4,102.4s-45.824,102.4-102.4,102.4C 250.675,192, 204.8,146.125, 204.8,89.6z M 716.8,89.6c0-56.525, 45.875-102.4, 102.4-102.4
	c 56.576,0, 102.4,45.875, 102.4,102.4s-45.824,102.4-102.4,102.4C 762.675,192, 716.8,146.125, 716.8,89.6z M 386.406,331.674L 953.139,493.568C 963.942,496.691, 972.8,508.416, 972.8,519.68L 972.8,801.28 L 250.88,801.28 L 250.88,888.32 
	C 250.88,899.584, 241.715,908.8, 230.4,908.8L 71.68,908.8 C 60.416,908.8, 51.2,899.584, 51.2,888.32L 51.2,806.4 l 99.482,0 l 100.762-463.718L 261.171,294.4l0-76.8 c0-11.264, 9.216-20.48, 20.429-20.48L 307.2,197.12 l 512,0 l 133.171,0 
	C 963.584,197.12, 972.8,206.336, 972.8,217.6L 972.8,294.4 L 396.902,294.4 C 338.074,294.4, 336.845,317.44, 386.406,331.674z"  />
<glyph unicode="&#xe037;" d="M 942.080,857.6L 81.92,857.6 C 64.973,857.6, 51.2,843.827, 51.2,826.88L 51.2,704 l 921.6,0 L 972.8,826.88 C 972.8,843.827, 959.027,857.6, 942.080,857.6z M 102.4,110.080C 102.4,70.656, 134.656,38.4, 174.080,38.4l 675.84,0 
	c 39.475,0, 71.68,32.256, 71.68,71.68L 921.6,652.8 L 102.4,652.8 L 102.4,110.080 z M 358.4,550.4l 307.2,0 l0-102.4 L 358.4,448 L 358.4,550.4 z"  />
<glyph unicode="&#xe038;" d="M 251.187,369.050l 181.862-181.862l 333.67,333.67l-181.914,181.862L 251.187,369.050z M 978.176,618.803l-77.414,77.363
	c-14.797-7.987-31.59-12.595-49.613-12.595c-57.19,0-103.578,46.387-103.578,103.629c0,17.971, 4.506,34.867, 12.595,49.613l-77.414,77.363
	c-20.224,20.173-53.094,20.173-73.318,0L 45.824,350.515c-20.173-20.173-20.173-53.146,0-73.318l 77.414-77.414c 14.746,8.038, 31.642,12.595, 49.562,12.595
	c 57.242,0, 103.629-46.336, 103.629-103.578c0-17.971-4.557-34.867-12.646-49.613l 77.363-77.414c 20.173-20.173, 53.146-20.173, 73.318,0l 563.712,563.712
	C 998.298,565.658, 998.298,598.63, 978.176,618.803z M 433.050,103.987l-265.011,265.062l 416.87,416.819L 849.92,520.858L 433.050,103.987z"  />
<glyph unicode="&#xe112;" d="M 102.502,816.691l0-121.242 c 362.803,0, 656.896-294.144, 656.896-656.947l 121.293,0 C 880.691,468.275, 532.275,816.691, 102.502,816.691z M 102.502,574.157l0-121.293 
		c 228.864,0, 414.413-185.498, 414.413-414.362l 121.19,0 C 638.106,334.285, 398.336,574.157, 102.502,574.157z M 218.726,270.95c-64.154,0-116.224-52.070-116.224-116.275
		s 52.070-116.224, 116.224-116.224c 64.205,0, 116.275,52.019, 116.275,116.224S 282.931,270.95, 218.726,270.95z"  />
<glyph unicode="&#xe039;" d="M 512,243.2c-56.013,0-101.325-45.875-101.325-102.4S 455.987,38.4, 512,38.4c 55.962,0, 101.325,45.875, 101.325,102.4S 567.962,243.2, 512,243.2z M 296.96,357.99l 71.68-72.397
		c 79.155,79.974, 207.514,79.974, 286.72,0l 71.68,72.397C 608.256,478.003, 415.693,478.003, 296.96,357.99z M 153.6,502.835l 71.629-72.397
		c 158.362,159.949, 415.078,159.949, 573.44,0L 870.4,502.835C 672.461,702.771, 351.539,702.771, 153.6,502.835z M 10.24,647.629L 81.92,575.232c 237.568,239.923, 622.643,239.923, 860.16,0
		l 71.68,72.397C 736.666,927.59, 287.334,927.59, 10.24,647.629z"  />
<glyph unicode="&#xe03a;" d="M 645.171,454.81L 645.171,908.8 c0,28.262-22.938,51.2-51.2,51.2L 419.84,960 C 391.526,960, 378.88,937.062, 378.88,908.8l0-453.99 C 293.427,407.757, 235.52,316.877, 235.52,212.48
	c0-152.678, 123.802-276.48, 276.48-276.48s 276.48,123.802, 276.48,276.48C 788.48,316.877, 730.573,407.757, 645.171,454.81z M 512,38.4c-96.154,0-174.080,77.926-174.080,174.080
	c0,79.565, 53.453,146.432, 126.362,167.27L 464.282,755.2 l 102.4,0 l0-377.498 c 69.325-22.938, 119.45-88.218, 119.45-165.222C 686.080,116.326, 608.154,38.4, 512,38.4z"  />
<glyph unicode="&#xe03b;" d="M 202.496,955.238c-0.768,6.349-11.264,6.349-11.981,0C 164.352,744.55, 30.72,701.133, 30.72,554.701c0-90.47, 75.878-163.789, 165.786-163.789
	s 165.786,73.318, 165.786,163.789C 362.291,701.133, 228.659,744.55, 202.496,955.238z M 833.485,955.238c-0.819,6.349-11.213,6.349-11.981,0
	c-26.163-210.688-159.795-254.106-159.795-400.538c0-90.47, 75.878-163.789, 165.786-163.789S 993.28,464.23, 993.28,554.701C 993.28,701.133, 859.648,744.55, 833.485,955.238
	z M 506.010,500.326C 479.846,289.638, 346.214,246.272, 346.214,99.84c0-90.522, 75.878-163.84, 165.786-163.84s 165.786,73.37, 165.786,163.84
	c0,146.381-133.632,189.798-159.795,400.486C 517.222,506.726, 506.778,506.726, 506.010,500.326z"  />
<glyph unicode="&#xe03c;" d="M 921.6,755.2L 460.8,755.2 l0-256 l 512,0 L 972.8,704 C 972.8,732.262, 949.914,755.2, 921.6,755.2z M 51.2,192c0-28.314, 12.698-51.2, 40.96-51.2L 358.4,140.8 l0,256 L 51.2,396.8 L 51.2,192 z M 460.8,140.8l 460.8,0 c 28.314,0, 51.2,22.886, 51.2,51.2l0,204.8 L 460.8,396.8 L 460.8,140.8 z
		 M 51.2,704l0-204.8 l 307.2,0 L 358.4,755.2 L 92.16,755.2 C 63.898,755.2, 51.2,732.262, 51.2,704z" />
<glyph unicode="&#xe03d;" d="M 35.328,379.802l 69.786-17.306l 52.531,82.534L 57.805,469.76c-24.986,6.246-50.227-8.909-56.422-33.792
	C-4.813,411.187, 10.394,385.997, 35.328,379.802z M 946.227,366.49l-228.506-205.722l-268.698,207.923c-5.12,3.994-11.008,6.81-17.306,8.397
	l-35.789,8.806l-52.531-82.483l 56.269-13.875l 291.738-225.69c 8.448-6.605, 18.483-9.779, 28.57-9.779c 11.213,0, 22.426,3.994, 31.232,11.981
	l 257.382,231.68c 19.098,17.203, 20.531,46.49, 3.328,65.485C 994.765,382.208, 965.325,383.693, 946.227,366.49z M 444.621,592.333l 250.214-160.205
	c 21.094-13.466, 49.152-7.885, 63.437,12.646l 257.434,370.79c 14.592,21.094, 9.318,49.92-11.827,64.512s-50.125,9.267-64.768-11.776l-231.834-333.926
	L 455.526,695.552C 445.133,702.208, 432.486,704.461, 420.352,701.798S 397.722,691.814, 391.117,681.37L 7.27,78.797c-13.824-21.606-7.373-50.176, 14.336-63.898
	C 29.338,9.984, 37.99,7.68, 46.541,7.68c 15.411,0, 30.464,7.578, 39.322,21.504L 444.621,592.333z"  />
<glyph unicode="&#xe03e;" d="M 459.059,847.462C 261.734,824.013, 105.37,667.597, 81.92,470.323l 377.139,0 L 459.059,847.462 z M 566.938,846.694l0-432.896 c0-28.365-22.989-51.354-51.405-51.354L 82.637,362.445 
	c 27.699-211.712, 208.538-375.194, 427.725-375.194c 238.387,0, 431.718,193.229, 431.718,431.718C 942.080,638.157, 778.598,818.995, 566.938,846.694z"  />
<glyph unicode="&#xe03f;" d="M 870.4,908.8l-112.64,0 C 729.498,908.8, 716.8,885.862, 716.8,857.6l0-870.4 l 204.8,0 L 921.6,857.6 C 921.6,885.862, 898.714,908.8, 870.4,908.8z M 563.2,601.6L 450.56,601.6 C 422.298,601.6, 409.6,578.662, 409.6,550.4l0-563.2 l 204.8,0 L 614.4,550.4 
	C 614.4,578.662, 591.514,601.6, 563.2,601.6z M 256,294.4L 143.36,294.4 C 115.098,294.4, 102.4,271.514, 102.4,243.2l0-256 l 204.8,0 l0,256 C 307.2,271.514, 284.262,294.4, 256,294.4z"  />
<glyph unicode="&#xe040;" d="M 997.786,837.786l-237.005-386.099c-8.806-14.285-26.010-16.64-38.298-5.171l-114.586,107.315c-12.288,11.469-29.901,9.421-39.219-4.608
	l-160.922-242.688c-9.267-13.978-27.034-16.179-39.475-4.915L 293.376,370.022c-12.442,11.315-31.181,9.83-41.677-3.226l-235.981-294.298
	C 5.171,59.341, 10.342,48.64, 27.085,48.64l 986.675,0 L 1013.76,833.28 C 1013.811,850.125, 1006.592,852.173, 997.786,837.786z"  />
<glyph unicode="&#xe041;" d="M 809.011,550.298L 716.8,550.298 l0,71.68 c0,148.326-68.301,235.52-204.8,235.52c-136.448,0-204.8-87.194-204.8-235.52l0-71.68 L 204.8,550.298 c-28.262,0-51.2-33.126-51.2-61.44l0-399.36 
		c0-28.16, 21.965-58.317, 48.742-66.918l 61.235-19.814c 26.778-8.653, 71.731-15.718, 99.942-15.718l 296.96,0 c 28.16,0, 73.165,7.066, 99.942,15.718l 61.235,19.814
		C 848.486,31.181, 870.4,61.338, 870.4,89.498l0,399.36 C 870.4,517.171, 837.274,550.298, 809.011,550.298z M 409.6,642.458c0,73.984, 40.858,112.64, 102.4,112.64
		c 61.594,0, 102.4-38.656, 102.4-112.64l0-92.16 L 409.6,550.298 L 409.6,642.458 z"  />
<glyph unicode="&#xe042;" d="M 808.96,550.4L 716.8,550.4 L 716.8,673.28 C 716.8,821.606, 648.448,908.8, 512,908.8C 375.501,908.8, 307.2,821.606, 307.2,673.28L 307.2,652.8 l 102.4,0 L 409.6,693.76 C 409.6,767.744, 450.406,806.4, 512,806.4c 61.542,0, 102.4-38.656, 102.4-112.64L 614.4,550.4 L 204.8,550.4 
		C 176.486,550.4, 153.6,517.274, 153.6,488.96L 153.6,89.6 c0-28.16, 21.965-58.266, 48.742-66.918l 61.235-19.814C 290.406-5.734, 335.36-12.8, 363.52-12.8l 296.96,0 
		c 28.211,0, 73.165,7.066, 99.942,15.718l 61.235,19.814C 848.435,31.334, 870.4,61.44, 870.4,89.6L 870.4,488.96 C 870.4,517.274, 837.274,550.4, 808.96,550.4z"  />
<glyph unicode="&#xe043;" d="M 564.275,89.6L 152.576,89.6 L 152.576,806.4 l 411.648,0 l0-153.6 L 665.6,652.8 L 665.6,806.4 c0,56.32-46.029,102.4-102.4,102.4L 153.6,908.8 C 97.28,908.8, 51.2,862.72, 51.2,806.4l0-716.8 c0-56.32, 46.080-102.4, 102.4-102.4l 409.6,0 c 56.371,0, 102.4,46.080, 102.4,102.4l0,102.4 l-101.325,0 L 564.275,89.6 z
	 M 972.8,422.4l-203.725,199.68L 769.075,499.2 l-460.8,0 l0-153.6 l 460.8,0 l0-122.88 L 972.8,422.4z"  />
<glyph unicode="&#xe044;" d="M 870.4,908.8L 409.6,908.8 C 353.28,908.8, 308.224,862.72, 308.224,806.4l0-153.6 L 409.6,652.8 L 409.6,806.4 l 460.8,0 l0-716.8 L 409.6,89.6 l0,102.4 L 308.224,192 l0-102.4 c0-56.32, 45.056-102.4, 101.376-102.4l 460.8,0 c 56.32,0, 102.4,46.080, 102.4,102.4L 972.8,806.4 C 972.8,862.72, 926.72,908.8, 870.4,908.8z
	 M 512,222.72l 204.8,199.68l-204.8,199.68L 512,499.2 L 51.2,499.2 l0-153.6 l 460.8,0 L 512,222.72 z"  />
<glyph unicode="&#xe045;" d="M 424.704,89.6c-22.272,0-43.366,10.394-56.883,28.314L 184.832,359.475c-23.808,31.437-17.613,76.186, 13.824,99.994
			c 31.488,23.859, 76.186,17.613, 99.994-13.824l 120.371-158.925l 302.694,485.939c 20.838,33.434, 64.87,43.674, 98.355,22.835
			c 33.434-20.787, 43.674-64.87, 22.784-98.304L 485.325,123.238c-12.442-20.019-33.894-32.563-57.395-33.587C 426.854,89.6, 425.779,89.6, 424.704,89.6z"  />
<glyph unicode="&#xe046;" d="M 734.669,286.618L 593.459,448l 141.21,161.382c 24.013,24.013, 24.013,62.925,0,86.886c-24.013,23.962-62.925,23.962-86.886,0L 512,541.082
		l-135.731,155.136c-24.013,24.013-62.925,24.013-86.886,0c-23.962-24.013-23.962-62.925,0-86.886L 430.541,448l-141.21-161.382
		c-23.962-24.013-23.962-62.822,0-86.784c 24.013-24.013, 62.925-24.013, 86.886,0L 512,354.918l 135.731-155.085c 24.013-24.013, 62.925-24.013, 86.886,0
		S 758.63,262.605, 734.669,286.618z"  />
<glyph unicode="&#xe047;" d="M 819.2,857.6L 204.8,857.6 C 148.48,857.6, 102.4,811.52, 102.4,755.2l0-614.4 c0-56.32, 46.080-102.4, 102.4-102.4l 614.4,0 c 56.32,0, 102.4,46.080, 102.4,102.4L 921.6,755.2 C 921.6,811.52, 875.52,857.6, 819.2,857.6z M 768,396.8L 256,396.8 L 256,499.2 l 512,0 L 768,396.8 z"  />
<glyph unicode="&#xe048;" d="M 819.2,857.6L 204.8,857.6 C 148.48,857.6, 102.4,811.52, 102.4,755.2l0-614.4 c0-56.32, 46.080-102.4, 102.4-102.4l 614.4,0 c 56.32,0, 102.4,46.080, 102.4,102.4L 921.6,755.2 C 921.6,811.52, 875.52,857.6, 819.2,857.6z M 768,396.8l-204.8,0 l0-204.8 L 460.8,192 l0,204.8 L 256,396.8 L 256,499.2 l 204.8,0 L 460.8,704 l 102.4,0 l0-204.8 l 204.8,0 L 768,396.8 z"  />
<glyph unicode="&#xe049;" d="M 819.2,857.6L 204.8,857.6 C 148.48,857.6, 102.4,811.52, 102.4,755.2l0-614.4 c0-56.32, 46.080-102.4, 102.4-102.4l 614.4,0 c 56.32,0, 102.4,46.080, 102.4,102.4L 921.6,755.2 C 921.6,811.52, 875.52,857.6, 819.2,857.6z M 668.723,202.803L 512,359.475
	l-156.723-156.723l-88.474,88.525L 423.475,448l-156.672,156.672l 88.474,88.525L 512,536.525l 156.672,156.672l 88.525-88.474L 600.525,448l 156.723-156.723L 668.723,202.803z"  />
<glyph unicode="&#xe04a;" d="M 512,878.080c-237.568,0-430.080-192.614-430.080-430.080c0-237.568, 192.563-430.080, 430.080-430.080c 237.517,0, 430.080,192.563, 430.080,430.080C 942.080,685.517, 749.517,878.080, 512,878.080z
		 M 770.56,500.326l0-104.704 L 253.44,395.622 L 253.44,500.326 L 770.56,500.326 z"  />
<glyph unicode="&#xe04b;" d="M 512,878.080c-237.568,0-430.080-192.614-430.080-430.080c0-237.568, 192.563-430.080, 430.080-430.080c 237.517,0, 430.080,192.563, 430.080,430.080C 942.080,685.517, 749.517,878.080, 512,878.080z
		 M 564.326,395.674l0-206.182 L 459.674,189.491 l0,206.182 L 253.44,395.674 L 253.44,500.326 l 206.182,0 L 459.622,706.56 l 104.704,0 l0-206.182 l 206.182,0 l0-104.704 L 564.326,395.674 z"  />
<glyph unicode="&#xe04c;" d="M 512,878.080c-237.568,0-430.080-192.614-430.080-430.080c0-237.568, 192.563-430.080, 430.080-430.080c 237.517,0, 430.080,192.563, 430.080,430.080C 942.080,685.517, 749.517,878.080, 512,878.080z
		 M 600.525,448l 156.723-156.723l-88.525-88.525L 512,359.475l-156.723-156.723l-88.474,88.525L 423.475,448l-156.672,156.672l 88.474,88.525L 512,536.525l 156.723,156.672
		l 88.525-88.474L 600.525,448z"  />
<glyph unicode="&#xe04d;" d="M 778.189,499.2L 245.76,499.2 c-28.314,0-30.72-22.938-30.72-51.2s 2.406-51.2, 30.72-51.2l 532.429,0 c 28.314,0, 30.771,22.938, 30.771,51.2S 806.502,499.2, 778.189,499.2z"  />
<glyph unicode="&#xe04e;" d="M 778.189,499.2l-215.040,0 L 563.149,714.24 c0,28.262-22.886,30.72-51.2,30.72c-28.262,0-51.2-2.406-51.2-30.72L 460.749,499.2 L 245.76,499.2 c-28.314,0-30.72-22.938-30.72-51.2s 2.406-51.2, 30.72-51.2l 214.989,0 
		l0-215.040 c0-28.262, 22.938-30.72, 51.2-30.72c 28.314,0, 51.2,2.458, 51.2,30.72L 563.149,396.8 l 215.040,0 c 28.314,0, 30.771,22.938, 30.771,51.2S 806.502,499.2, 778.189,499.2z"  />
<glyph unicode="&#xe04f;" d="M 921.6,806.4L 432.435,806.4 c-22.528,0-54.835-12.134-71.782-26.982L 12.698,474.982c-16.947-14.848-16.947-39.117,0-53.965l 347.955-304.486
	C 377.6,101.734, 409.907,89.6, 432.435,89.6L 921.6,89.6 c 56.371,0, 102.4,46.080, 102.4,102.4L 1024,704 C 1024,760.32, 977.971,806.4, 921.6,806.4z M 777.779,243.2l-130.918,130.918L 516.045,243.2l-73.933,73.882
	L 572.979,448L 442.112,578.867L 516.045,652.8l 130.867-130.867L 777.779,652.8l 73.882-73.933L 720.845,448l 130.867-130.867L 777.779,243.2z"  />
<glyph unicode="&#xe050;" d="M 512,939.52c-271.462,0-491.52-220.058-491.52-491.52s 220.058-491.52, 491.52-491.52c 271.514,0, 491.52,220.058, 491.52,491.52S 783.514,939.52, 512,939.52z M 776.499,712.397
		l-0.102,0.102C 776.397,712.448, 776.499,712.397, 776.499,712.397z M 138.035,448c0,206.541, 167.424,373.965, 373.965,373.965c 89.805,0, 172.237-31.642, 236.749-84.378
		L 222.464,211.354C 169.677,275.814, 138.035,358.195, 138.035,448z M 247.501,183.603l 0.102-0.102C 247.552,183.552, 247.552,183.552, 247.501,183.603z M 512,73.984
		c-89.805,0-172.186,31.693-236.646,84.429L 801.485,684.646c 52.787-64.461, 84.48-146.842, 84.48-236.646C 886.016,241.459, 718.49,73.984, 512,73.984z"  />
<glyph unicode="&#xe051;" d="M 636.518,960c 68.608,0, 102.912-46.797, 102.912-100.25c0-66.765-59.597-128.563-137.114-128.563c-65.024,0-102.912,38.4-101.12,101.837
		C 501.197,886.528, 546.253,960, 636.518,960z M 425.421-64c-54.17,0-93.85,33.382-55.962,180.378l 62.157,260.659c 10.803,41.728, 12.595,58.47,0,58.47
		c-16.282,0-86.528-28.826-128.102-57.242L 276.48,423.373c 131.738,111.923, 283.238,177.51, 348.211,177.51c 54.118,0, 63.078-65.126, 36.096-165.325l-71.219-274.022
		c-12.595-48.435-7.219-65.126, 5.376-65.126c 16.282,0, 69.478,20.122, 121.805,61.85l 30.72-41.728C 619.418-13.824, 479.539-64, 425.421-64z"  />
<glyph unicode="&#xe052;" d="M 505.702,918.989c-260.096-3.482-468.173-217.19-464.691-477.338c 3.482-259.994, 217.19-468.122, 477.286-464.64
		c 260.096,3.482, 468.173,217.19, 464.691,477.338C 979.558,714.394, 765.798,922.47, 505.702,918.989z M 557.926,762.010c 47.872,0, 62.003-27.75, 62.003-59.546
		c0-39.68-31.795-76.39-86.016-76.39c-45.363,0-66.918,22.835-65.638,60.518C 468.275,718.387, 494.899,762.010, 557.926,762.010z M 435.149,153.6
		c-32.717,0-56.678,19.866-33.792,107.213l 37.53,154.829c 6.502,24.832, 7.578,34.765,0,34.765c-9.779,0-52.275-17.152-77.414-34.048l-16.333,26.778
		c 79.616,66.458, 171.162,105.472, 210.381,105.472c 32.717,0, 38.144-38.707, 21.811-98.253l-43.008-162.816c-7.578-28.774-4.301-38.707, 3.277-38.707
		c 9.779,0, 41.984,11.878, 73.626,36.762l 18.483-24.832C 552.346,183.398, 467.917,153.6, 435.149,153.6z"  />
<glyph unicode="&#xe12b;" d="M 721.408,845.619C 662.989,887.757, 589.722,908.8, 501.453,908.8C 434.278,908.8, 377.651,893.952, 331.622,864.358C 258.56,817.971, 219.75,739.226, 215.040,628.122l 169.267,0 
		c0,32.358, 9.421,63.539, 28.314,93.542s 50.944,45.005, 96.154,45.005c 45.926,0, 77.619-12.186, 94.925-36.506c 17.357-24.422, 26.010-51.405, 26.010-80.998
		c0-25.754-12.902-49.306-28.467-70.758c-8.55-12.493-19.866-23.962-33.843-34.509c0,0-91.802-58.88-132.147-106.189
		c-23.398-27.443-25.498-68.506-27.546-127.437c-0.154-4.198, 1.434-12.851, 16.128-12.851s 118.63,0, 131.686,0s 15.77,9.677, 15.974,13.926
		c 0.922,21.453, 3.328,32.41, 7.27,44.8c 7.424,23.398, 27.494,43.827, 50.125,61.389l 46.592,32.154c 42.035,32.768, 75.622,59.648, 90.419,80.742
		C 791.194,565.146, 808.96,607.846, 808.96,658.483C 808.96,741.171, 779.725,803.533, 721.408,845.619z M 498.739,195.891c-58.368,1.741-106.496-38.605-108.339-101.888
		c-1.843-63.232, 43.93-105.011, 102.298-106.752c 60.928-1.792, 107.776,37.274, 109.619,100.506C 604.109,151.040, 559.667,194.099, 498.739,195.891z"  />
<glyph unicode="&#xe12a;" d="M 505.754,918.989c-260.147-3.482-468.224-217.19-464.742-477.338c 3.482-259.994, 217.19-468.122, 477.338-464.64
	c 260.045,3.482, 468.173,217.19, 464.64,477.338C 979.558,714.394, 765.85,922.47, 505.754,918.989z M 504.371,161.28L 501.76,161.28 c-40.038,1.178-68.301,30.72-67.174,70.195
	c 1.126,38.758, 30.054,66.97, 68.813,66.97l 2.355-0.051c 41.165-1.229, 69.12-30.464, 67.891-71.066C 572.518,188.467, 544,161.28, 504.371,161.28z
	 M 672.87,495.718c-9.472-13.363-30.157-30.003-56.269-50.33l-28.774-19.866c-15.77-12.288-25.293-23.808-28.826-35.123
	c-2.867-9.011-4.198-11.315-4.454-29.491l-0.051-4.659L 444.774,356.25 l 0.307,9.318c 1.331,38.195, 2.304,60.621, 18.125,79.206
	c 24.832,29.133, 79.616,64.41, 81.92,65.894c 7.834,5.939, 14.438,12.646, 19.405,19.814c 11.52,15.872, 16.589,28.416, 16.589,40.653
	c0,17.050-5.069,32.819-15.053,46.848c-9.626,13.568-27.904,20.429-54.323,20.429c-26.214,0-44.134-8.346-54.886-25.395
	C 445.747,595.456, 440.218,577.075, 440.218,558.234l0-4.71 l-113.152,0 l 0.205,4.915c 2.918,69.325, 27.648,119.194, 73.523,148.326C 429.568,725.35, 465.408,734.72, 507.187,734.72
	c 54.733,0, 101.018-13.312, 137.37-39.526c 36.864-26.573, 55.552-66.406, 55.552-118.323C 700.109,547.789, 690.944,520.499, 672.87,495.718z"  />
<glyph unicode="&#xe129;" d="M 999.014,39.322L 542.925,839.629C 536.627,850.688, 524.8,857.498, 512,857.498c-12.8,0-24.576-6.81-30.925-17.869L 25.037,39.322
		c-6.195-10.854-6.093-24.115, 0.256-34.867s 18.022-17.357, 30.618-17.357l 912.128,0 c 12.493,0, 24.218,6.605, 30.618,17.357
		C 1005.005,15.206, 1005.107,28.467, 999.014,39.322z M 568.32,89.498L 455.68,89.498 l0,102.4 l 112.64,0 L 568.32,89.498 z M 568.32,268.698L 455.68,268.698 l0,307.2 l 112.64,0 L 568.32,268.698 z"  />
<glyph unicode="&#xe128;" d="M 282.419,231.731c-115.814,124.57-113.766,319.744, 6.502,440.883c 49.254,49.562, 110.797,79.155, 174.797,88.883L 460.186,867.84
	C 370.381,856.934, 283.443,816.845, 214.579,747.52C 53.35,585.114, 51.456,323.072, 208.282,157.082l-89.139-89.754l 282.112-15.411l-0.768,298.701L 282.419,231.731z
	 M 622.694,844.032l 0.768-298.701l 118.118,118.938c 115.814-124.57, 113.818-319.744-6.502-440.883c-49.254-49.613-110.797-79.155-174.848-88.883l 3.533-106.291
	c 89.856,10.906, 176.794,50.995, 245.658,120.371c 161.178,162.355, 163.174,424.448, 6.246,590.387l 89.139,89.754L 622.694,844.032z"  />
</font>
</defs>
</svg>
